<?xml version="1.0" encoding="UTF-8"?>
<svg version="1.1" xmlns="http://www.w3.org/2000/svg" width="123" height="150">
<path d="M0 0 C0.51046875 0.36351563 1.0209375 0.72703125 1.546875 1.1015625 C18.26429712 12.66148205 36.44510603 17.53239838 56.4375 19.625 C60 20 60 20 62 21 C63.25548681 55.80488448 56.54586643 93.65889878 35 122 C34.2678125 122.96421875 33.535625 123.9284375 32.78125 124.921875 C24.59271469 135.29775878 14.64554157 143.66512885 3 150 C-5.87468081 150.3480267 -12.70435009 143.24510416 -19 137.75 C-20.68224537 136.18322857 -22.34883141 134.59948882 -24 133 C-24.81339844 132.21238281 -25.62679687 131.42476562 -26.46484375 130.61328125 C-54.04805934 102.15855806 -61.73898394 61.23931791 -61.16113281 23.09106445 C-61 21 -61 21 -60 20 C-58.42291732 19.76148129 -56.83720363 19.57956322 -55.25 19.421875 C-35.37192175 17.29905174 -15.18241587 14.31484925 0 0 Z " fill="#05F802" transform="translate(61,0)"/>
<path d="M0 0 C0.51046875 0.36351563 1.0209375 0.72703125 1.546875 1.1015625 C18.26429712 12.66148205 36.44510603 17.53239838 56.4375 19.625 C60 20 60 20 62 21 C63.25548681 55.80488448 56.54586643 93.65889878 35 122 C34.2678125 122.96421875 33.535625 123.9284375 32.78125 124.921875 C24.59271469 135.29775878 14.64554157 143.66512885 3 150 C-5.87468081 150.3480267 -12.70435009 143.24510416 -19 137.75 C-20.68224537 136.18322857 -22.34883141 134.59948882 -24 133 C-24.81339844 132.21238281 -25.62679687 131.42476562 -26.46484375 130.61328125 C-54.04805934 102.15855806 -61.73898394 61.23931791 -61.16113281 23.09106445 C-61 21 -61 21 -60 20 C-58.42291732 19.76148129 -56.83720363 19.57956322 -55.25 19.421875 C-35.37192175 17.29905174 -15.18241587 14.31484925 0 0 Z M-10.33984375 18.03515625 C-19.03076585 22.90789577 -28.29026836 23.9497161 -38.0625 25.1875 C-39.41872671 25.3657247 -40.77484778 25.54475529 -42.13085938 25.72460938 C-45.41962503 26.15764969 -48.70922489 26.58255406 -52 27 C-52.71174981 57.90362904 -51.42691462 86.84807501 -35 114 C-33.81495073 115.40803752 -33.81495073 115.40803752 -30.4375 115.1875 C-25.16312831 115.14510151 -19.97592232 114.44470917 -14.76147461 113.71166992 C-3.59179269 112.17428142 -3.59179269 112.17428142 1 115 C1.33 114.67 1.66 114.34 2 114 C9.10341612 113.67625181 15.97361743 113.95905443 23 115 C27.16613184 115.6064981 30.87187571 115.96016261 35 115 C38.04292085 112.14803168 39.42140602 108.81368261 41 105 C41.43699219 104.04996094 41.87398438 103.09992188 42.32421875 102.12109375 C53.28819676 77.39452472 53.43022418 53.45327129 53 27 C46.7756264 25.89466992 40.61110215 24.89515497 34.30615234 24.41845703 C23.17096288 23.53308244 13.18545989 20.62001333 3.9375 14.1875 C-1.03469886 11.51684297 -6.00618615 15.52253043 -10.33984375 18.03515625 Z " fill="#080E08" transform="translate(61,0)"/>
<path d="M0 0 C0.94875 0.78375 1.8975 1.5675 2.875 2.375 C2.875 3.035 2.875 3.695 2.875 4.375 C1.885 4.705 0.895 5.035 -0.125 5.375 C-0.62 3.89 -0.62 3.89 -1.125 2.375 C-3.81830122 0.57946585 -5.2710601 -0.05196461 -8.3125 -0.75 C-9.570625 -1.03875 -10.82875 -1.3275 -12.125 -1.625 C-11.27493914 0.64216429 -11.27493914 0.64216429 -8.625 1.3125 C-7.8 1.663125 -6.975 2.01375 -6.125 2.375 C-5.63 3.86 -5.63 3.86 -5.125 5.375 C-3.3924686 6.79591083 -3.3924686 6.79591083 -1.3125 8.125 C3.39582782 11.52545898 6.02342426 14.96301985 7.4609375 20.72265625 C9.15654627 31.58415018 7.32123382 40.02120411 1.875 49.375 C1.32038086 49.3435791 0.76576172 49.3121582 0.19433594 49.27978516 C-2.32835792 49.1547583 -4.85040122 49.07694713 -7.375 49 C-8.24769531 48.94972656 -9.12039062 48.89945313 -10.01953125 48.84765625 C-12.52439967 48.79029285 -14.68356702 48.80247155 -17.125 49.375 C-19.81039166 52.20991093 -19.81039166 52.20991093 -21.125 55.375 C-23.125 53.375 -25.125 51.375 -27.125 49.375 C-32.73039524 49.26627723 -32.73039524 49.26627723 -38.3359375 49.296875 C-44.24032368 49.1622473 -44.24032368 49.1622473 -46.78320312 46.89941406 C-51.0042611 41.21161437 -51.32719357 35.95583615 -51.375 29 C-51.395625 28.2575 -51.41625 27.515 -51.4375 26.75 C-51.47229756 21.8261453 -50.62734927 18.73435584 -48.125 14.375 C-48.125 13.715 -48.125 13.055 -48.125 12.375 C-49.445 12.705 -50.765 13.035 -52.125 13.375 C-52.455 14.695 -52.785 16.015 -53.125 17.375 C-54.115 17.045 -55.105 16.715 -56.125 16.375 C-55.04673635 15.09986237 -53.96214481 13.83007431 -52.875 12.5625 C-52.27171875 11.85480469 -51.6684375 11.14710937 -51.046875 10.41796875 C-49.20129602 8.45610329 -47.32554668 6.91830375 -45.125 5.375 C-46.115 4.715 -47.105 4.055 -48.125 3.375 C-32.83352731 -8.06226953 -16.74665486 -11.21992582 0 0 Z " fill="#0C6404" transform="translate(83.125,50.625)"/>
<path d="M0 0 C0.75925781 0.52335937 1.51851563 1.04671875 2.30078125 1.5859375 C3.14189453 2.28589844 3.14189453 2.28589844 4 3 C4 3.66 4 4.32 4 5 C2 6.625 2 6.625 0 8 C0.54269531 8.47050781 1.08539063 8.94101562 1.64453125 9.42578125 C2.35996094 10.04839844 3.07539062 10.67101562 3.8125 11.3125 C4.52019531 11.92738281 5.22789063 12.54226562 5.95703125 13.17578125 C9.6228796 16.44911047 9.6228796 16.44911047 11 18 C11 18.66 11 19.32 11 20 C7.37 20 3.74 20 0 20 C0 22.31 0 24.62 0 27 C-3.45201639 25.52278578 -5.64961936 23.56205999 -8.25 20.875 C-8.95640625 20.15054688 -9.6628125 19.42609375 -10.390625 18.6796875 C-11.18726562 17.84824219 -11.18726562 17.84824219 -12 17 C-11.01 16.505 -11.01 16.505 -10 16 C-14.22584675 10.81373354 -20.7698508 8.0767164 -27 6 C-36.0461665 5.37998185 -44.06418743 5.08136765 -52 10 C-52.76441406 10.45503906 -53.52882813 10.91007812 -54.31640625 11.37890625 C-56.23690352 12.55124458 -58.12650057 13.75440365 -60 15 C-59.01 15.66 -58.02 16.32 -57 17 C-62.445 21.95 -62.445 21.95 -68 27 C-68.66 26.67 -69.32 26.34 -70 26 C-70 24.02 -70 22.04 -70 20 C-73.3 20 -76.6 20 -80 20 C-77.77814265 15.5562853 -75.25099819 13.32968842 -71.58203125 10.09765625 C-69.68095383 8.06782771 -69.68095383 8.06782771 -70.26171875 5.24609375 C-70.62716797 4.13427734 -70.62716797 4.13427734 -71 3 C-50.49718769 -17.01465011 -22.37767629 -16.25366505 0 0 Z " fill="#F4EB10" transform="translate(96,39)"/>
<path d="M0 0 C0.66 -0.66 1.32 -1.32 2 -2 C4.44262695 -2.05932617 4.44262695 -2.05932617 7.48828125 -1.79296875 C8.58720703 -1.70080078 9.68613281 -1.60863281 10.81835938 -1.51367188 C12.54795898 -1.3522168 12.54795898 -1.3522168 14.3125 -1.1875 C16.02469727 -1.04344727 16.02469727 -1.04344727 17.77148438 -0.89648438 C22.58280598 -0.47749728 27.27485561 -0.02424119 32 1 C24.66221132 13.99111644 12.59754725 23.46501847 0 31 C-13.21933065 24.5045758 -24.83530774 14.24703838 -33 2 C-30.17151261 0.42879562 -27.87776121 -0.31305897 -24.6640625 -0.6328125 C-23.84679688 -0.71660156 -23.02953125 -0.80039063 -22.1875 -0.88671875 C-21.341875 -0.96535156 -20.49625 -1.04398437 -19.625 -1.125 C-18.78710938 -1.21136719 -17.94921875 -1.29773438 -17.0859375 -1.38671875 C-4.30993287 -2.65226638 -4.30993287 -2.65226638 0 0 Z " fill="#00ED00" transform="translate(62,116)"/>
<path d="M0 0 C2.97 0 5.94 0 9 0 C9.66 1.65 10.32 3.3 11 5 C12.98 4.67 14.96 4.34 17 4 C16.96519531 5.134375 16.93039063 6.26875 16.89453125 7.4375 C16.53383472 18.57512411 16.53383472 18.57512411 20 29 C20.34675781 29.88300781 20.69351563 30.76601562 21.05078125 31.67578125 C22.70813359 34.1351796 22.70813359 34.1351796 24.84790039 34.39697266 C28.01002873 34.53900431 31.14608468 34.46031517 34.30859375 34.36132812 C40.24561857 34.38578045 40.24561857 34.38578045 42.68457031 36.37158203 C44.0703125 38.03515625 44.0703125 38.03515625 46 41 C46.9590625 39.7934375 46.9590625 39.7934375 47.9375 38.5625 C50 36 50 36 51 35 C53.96940703 34.87307704 56.90518257 34.81478799 59.875 34.8125 C61.11830078 34.79413086 61.11830078 34.79413086 62.38671875 34.77539062 C63.18464844 34.77345703 63.98257813 34.77152344 64.8046875 34.76953125 C65.90272705 34.76336792 65.90272705 34.76336792 67.02294922 34.75708008 C69 35 69 35 72 37 C71.67 37.99 71.34 38.98 71 40 C69.35 40 67.7 40 66 40 C66 40.66 66 41.32 66 42 C53.89955714 48.77454371 41.65104873 49.53447219 28 50 C26.89688477 50.04672852 25.79376953 50.09345703 24.65722656 50.14160156 C23.57666992 50.16963867 22.49611328 50.19767578 21.3828125 50.2265625 C19.90772217 50.27031006 19.90772217 50.27031006 18.40283203 50.31494141 C17.60989746 50.21101074 16.81696289 50.10708008 16 50 C14 47 14 47 14 43 C13.34 43 12.68 43 12 43 C7.59225513 34.738041 7.59225513 34.738041 7 30 C6.67 30 6.34 30 6 30 C4.54694195 24.26631148 3.17339133 18.52062813 1.875 12.75 C1.69324219 11.96109375 1.51148437 11.1721875 1.32421875 10.359375 C1.15277344 9.59625 0.98132812 8.833125 0.8046875 8.046875 C0.64983887 7.36463867 0.49499023 6.68240234 0.33544922 5.97949219 C0 4 0 4 0 0 Z " fill="#00FA00" transform="translate(15,64)"/>
<path d="M0 0 C2.0625 0.4375 2.0625 0.4375 4 1 C4.03440186 1.79172607 4.06880371 2.58345215 4.10424805 3.39916992 C4.27431346 6.99691025 4.48050813 10.59170311 4.6875 14.1875 C4.74099609 15.43337891 4.79449219 16.67925781 4.84960938 17.96289062 C5.13431288 25.0681685 5.13431288 25.0681685 8.45703125 31.11328125 C9.71580078 32.04720703 9.71580078 32.04720703 11 33 C13 37 13 37 14 48 C2.45 48 -9.1 48 -21 48 C-19 34 -19 34 -17 31 C-16.34 31 -15.68 31 -15 31 C-14.67 30.01 -14.34 29.02 -14 28 C-13.34 28 -12.68 28 -12 28 C-12 27.34 -12 26.68 -12 26 C-8.32547562 23.1605948 -6.73113419 22 -2 22 C-1.97494385 21.36908447 -1.9498877 20.73816895 -1.92407227 20.08813477 C-1.80845863 17.24603175 -1.68557684 14.40428917 -1.5625 11.5625 C-1.52318359 10.56927734 -1.48386719 9.57605469 -1.44335938 8.55273438 C-1.40146484 7.60849609 -1.35957031 6.66425781 -1.31640625 5.69140625 C-1.27974854 4.81685791 -1.24309082 3.94230957 -1.20532227 3.04125977 C-1 1 -1 1 0 0 Z " fill="#9C982B" transform="translate(64,50)"/>
<path d="M0 0 C0 7.26 0 14.52 0 22 C-1.65 22 -3.3 22 -5 22 C-7.17032476 23.43990623 -7.17032476 23.43990623 -9 25 C-9.66 25 -10.32 25 -11 25 C-11 25.66 -11 26.32 -11 27 C-12.375 28.625 -12.375 28.625 -14 30 C-14.66 30 -15.32 30 -16 30 C-17.32 35.61 -18.64 41.22 -20 47 C-20.99 47 -21.98 47 -23 47 C-23.433125 46.113125 -23.86625 45.22625 -24.3125 44.3125 C-25.85236716 41.09819312 -25.85236716 41.09819312 -27.58203125 38.74609375 C-30.82717955 32.46141262 -29.80074658 22.71231688 -27.9375 16 C-26.07590534 11.30168966 -22.79713085 8.2183534 -19 5 C-18.34 4.401875 -17.68 3.80375 -17 3.1875 C-11.38776817 -0.14476265 -6.5282167 0 0 0 Z " fill="#01F6F4" transform="translate(63,51)"/>
<path d="M0 0 C-0.33 4.62 -0.66 9.24 -1 14 C-1.66 14 -2.32 14 -3 14 C-3.103125 15.134375 -3.20625 16.26875 -3.3125 17.4375 C-3.80771222 21.47814459 -4.90655734 25.10022941 -6.28125 28.921875 C-6.97619242 30.93116503 -7.5153817 32.93105266 -8 35 C-8.66 35 -9.32 35 -10 35 C-10.11472656 35.71800781 -10.22945312 36.43601563 -10.34765625 37.17578125 C-11.03211904 40.13905427 -12.05846179 42.4826209 -13.4375 45.1875 C-13.86933594 46.04730469 -14.30117187 46.90710938 -14.74609375 47.79296875 C-16 50 -16 50 -18 52 C-20.73388672 52.22705078 -20.73388672 52.22705078 -24.1796875 52.1953125 C-25.41847656 52.18886719 -26.65726563 52.18242188 -27.93359375 52.17578125 C-29.23425781 52.15902344 -30.53492188 52.14226562 -31.875 52.125 C-33.16792969 52.11597656 -34.46085937 52.10695312 -35.79296875 52.09765625 C-38.19779076 52.08017572 -40.60258876 52.05860493 -43.00732422 52.03173828 C-45.33810908 52.00701956 -47.66908406 52 -50 52 C-50.33 51.34 -50.66 50.68 -51 50 C-49.741875 49.938125 -48.48375 49.87625 -47.1875 49.8125 C-42.04690069 49.27481449 -37.96574124 47.3631149 -33.3828125 45.05859375 C-31 44 -31 44 -28 44 C-28 43.34 -28 42.68 -28 42 C-27.195625 41.87625 -26.39125 41.7525 -25.5625 41.625 C-24.716875 41.41875 -23.87125 41.2125 -23 41 C-22.67 40.34 -22.34 39.68 -22 39 C-22.66 39 -23.32 39 -24 39 C-23.59124014 36.13868101 -23.09989161 34.16069521 -21.5625 31.6875 C-16.94397249 23.74363268 -17.79221994 14.86528255 -18 6 C-17.34 6 -16.68 6 -16 6 C-16 6.66 -16 7.32 -16 8 C-14.68 8 -13.36 8 -12 8 C-11.67 5.69 -11.34 3.38 -11 1 C-9.35422741 0.83273455 -7.70838013 0.66620388 -6.0625 0.5 C-5.14597656 0.4071875 -4.22945312 0.314375 -3.28515625 0.21875 C-1 0 -1 0 0 0 Z " fill="#01FA01" transform="translate(109,62)"/>
<path d="M0 0 C0 0.66 0 1.32 0 2 C0.32205743 4.33491639 0.65458149 6.66842508 1 9 C-2.08809695 10.76462683 -3.23312136 11 -7 11 C-7.185625 12.1446875 -7.185625 12.1446875 -7.375 13.3125 C-8.14655817 16.63020012 -9.16100166 18.46348683 -12.05859375 20.31640625 C-12.84363281 20.72761719 -13.62867187 21.13882813 -14.4375 21.5625 C-17.07162178 22.95550345 -19.51385989 24.34257326 -22 26 C-21.01 26.66 -20.02 27.32 -19 28 C-24.445 32.95 -24.445 32.95 -30 38 C-30.66 37.67 -31.32 37.34 -32 37 C-32 35.02 -32 33.04 -32 31 C-35.3 31 -38.6 31 -42 31 C-39.77814265 26.5562853 -37.25099819 24.32968842 -33.58203125 21.09765625 C-31.68095383 19.06782771 -31.68095383 19.06782771 -32.26171875 16.24609375 C-32.62716797 15.13427734 -32.62716797 15.13427734 -33 14 C-25.52068288 6.69876186 -10.93078113 -3.24582147 0 0 Z " fill="#F2EA10" transform="translate(58,28)"/>
<path d="M0 0 C2.17193502 0.93224847 4.18276113 2.00769564 6.23535156 3.17919922 C7.75117372 3.96117097 9.27073108 4.73594482 10.79394531 5.50341797 C11.52726074 5.87644043 12.26057617 6.24946289 13.01611328 6.63378906 C23.09337033 11.5089437 34.99264255 11.5385828 45.9699707 12.3671875 C48.04785156 12.61669922 48.04785156 12.61669922 51.04785156 13.61669922 C50.04785156 16.61669922 50.04785156 16.61669922 47.04785156 18.61669922 C45.12182617 18.87548828 45.12182617 18.87548828 42.95019531 18.88232422 C41.75571777 18.88897095 41.75571777 18.88897095 40.53710938 18.89575195 C39.27398926 18.88137085 39.27398926 18.88137085 37.98535156 18.86669922 C37.12135742 18.85775635 36.25736328 18.84881348 35.3671875 18.83959961 C22.16394647 18.59929166 12.70211096 14.44382892 1.04785156 8.61669922 C-4.13365619 8.22564203 -6.66869984 8.7958916 -10.95214844 11.61669922 C-15.13876467 13.48302212 -18.31481165 14.61669922 -22.95214844 14.61669922 C-22.95214844 15.27669922 -22.95214844 15.93669922 -22.95214844 16.61669922 C-29.62841835 18.34179846 -35.63662414 18.87290144 -42.51464844 18.74169922 C-43.42794922 18.73267578 -44.34125 18.72365234 -45.28222656 18.71435547 C-47.50582163 18.69107175 -49.72883521 18.65837632 -51.95214844 18.61669922 C-52.61214844 16.96669922 -53.27214844 15.31669922 -53.95214844 13.61669922 C-53.15744141 13.52694824 -52.36273438 13.43719727 -51.54394531 13.34472656 C-28.29072925 11.4514676 -28.29072925 11.4514676 -7.27807617 2.41333008 C-4.88756044 0.74412266 -2.96962912 -0.58308125 0 0 Z " fill="#75F975" transform="translate(62.9521484375,13.38330078125)"/>
<path d="M0 0 C1.32 0 2.64 0 4 0 C4.64880145 32.3868375 4.64880145 32.3868375 1 47 C0.83371094 47.67240723 0.66742188 48.34481445 0.49609375 49.03759766 C-2.50810117 60.68441628 -7.31512612 71.97268918 -14 82 C-16.8203125 82.29296875 -16.8203125 82.29296875 -20.125 82.1875 C-21.76855469 82.14689453 -21.76855469 82.14689453 -23.4453125 82.10546875 C-24.28835937 82.07066406 -25.13140625 82.03585938 -26 82 C-26 81.67 -26 81.34 -26 81 C-24.906875 80.938125 -23.81375 80.87625 -22.6875 80.8125 C-18.92824544 80.41569541 -18.92824544 80.41569541 -17.4375 77.8125 C-15.98287053 74.96648582 -14.61387991 72.1068117 -13.3125 69.1875 C-12.87550781 68.21167969 -12.43851563 67.23585938 -11.98828125 66.23046875 C-11.66214844 65.49441406 -11.33601563 64.75835937 -11 64 C-10.34 64 -9.68 64 -9 64 C-8.96261719 63.443125 -8.92523438 62.88625 -8.88671875 62.3125 C-8.40240533 56.69066581 -7.12354567 52.22038311 -5 47 C-4.64645567 45.6718828 -4.30752791 44.33952061 -4 43 C-3.34 43 -2.68 43 -2 43 C-2 38.71 -2 34.42 -2 30 C-5.3 30 -8.6 30 -12 30 C-12.33 32.31 -12.66 34.62 -13 37 C-14.32 37 -15.64 37 -17 37 C-17 36.34 -17 35.68 -17 35 C-17.66 35 -18.32 35 -19 35 C-18.67 35.99 -18.34 36.98 -18 38 C-17.931009 40.06145107 -17.91532273 42.12501401 -17.9375 44.1875 C-17.94652344 45.27417969 -17.95554687 46.36085937 -17.96484375 47.48046875 C-17.97644531 48.31191406 -17.98804687 49.14335938 -18 50 C-18.33 50 -18.66 50 -19 50 C-19.09796875 49.07058594 -19.1959375 48.14117187 -19.296875 47.18359375 C-20.40196042 35.96886335 -20.40196042 35.96886335 -27.0390625 27.359375 C-28.4634747 26.32252372 -29.9131917 25.31916744 -31.390625 24.359375 C-31.92171875 23.91078125 -32.4528125 23.4621875 -33 23 C-33 22.01 -33 21.02 -33 20 C-34.98 19.34 -36.96 18.68 -39 18 C-39 17.34 -39 16.68 -39 16 C-30 16.75 -30 16.75 -27 20 C-27 20.99 -27 21.98 -27 23 C-26.41476563 23.25652344 -25.82953125 23.51304688 -25.2265625 23.77734375 C-22.80765392 25.10562162 -21.26801128 26.56524801 -19.375 28.5625 C-16.95478041 31.14015389 -16.95478041 31.14015389 -14 33 C-14 30.69 -14 28.38 -14 26 C-10.37 26 -6.74 26 -3 26 C-2.86722656 24.29070313 -2.73445313 22.58140625 -2.59765625 20.8203125 C-2.41948828 18.5885243 -2.24109102 16.35675439 -2.0625 14.125 C-1.97548828 12.99707031 -1.88847656 11.86914062 -1.79882812 10.70703125 C-1.71181641 9.63066406 -1.62480469 8.55429687 -1.53515625 7.4453125 C-1.456604 6.45031738 -1.37805176 5.45532227 -1.29711914 4.43017578 C-1 2 -1 2 0 0 Z " fill="#00D800" transform="translate(110,33)"/>
<path d="M0 0 C5.87603722 2.35041489 11.37748562 4.56622843 15 10 C15 10.99 15 11.98 15 13 C15.66 13 16.32 13 17 13 C17.66 15.31 18.32 17.62 19 20 C19.66 20 20.32 20 21 20 C21.02705308 22.41674224 21.04686438 24.8331794 21.0625 27.25 C21.07087891 27.93191406 21.07925781 28.61382812 21.08789062 29.31640625 C21.10428392 32.69342554 21.05628768 35.77291639 20 39 C19.34 39 18.68 39 18 39 C17.690625 39.804375 17.38125 40.60875 17.0625 41.4375 C16 44 16 44 15 45 C13.33382885 45.04063832 11.66611905 45.042721 10 45 C9.80664062 44.11957031 9.61328125 43.23914063 9.4140625 42.33203125 C9.15367188 41.17058594 8.89328125 40.00914063 8.625 38.8125 C8.36976562 37.66394531 8.11453125 36.51539063 7.8515625 35.33203125 C6.75563822 31.03883528 6.75563822 31.03883528 5 27 C3.97132812 26.49726562 3.97132812 26.49726562 2.921875 25.984375 C2.28765625 25.65953125 1.6534375 25.3346875 1 25 C0.390625 22.890625 0.390625 22.890625 0.25 20.25 C0.19457031 19.27933594 0.13914062 18.30867188 0.08203125 17.30859375 C-0.06105418 11.5374816 -0.0758392 5.77220545 0 0 Z " fill="#00F6F4" transform="translate(68,53)"/>
<path d="M0 0 C1.32 0 2.64 0 4 0 C4 0.99 4 1.98 4 3 C4.99 3.33 5.98 3.66 7 4 C7.33 3.34 7.66 2.68 8 2 C10.31 2 12.62 2 15 2 C15 2.99 15 3.98 15 5 C15.66 4.01 16.32 3.02 17 2 C17 3.65 17 5.3 17 7 C15.02 7 13.04 7 11 7 C13.31 9.64 15.62 12.28 18 15 C18.66 14.01 19.32 13.02 20 12 C20 12.99 20 13.98 20 15 C20.99 15 21.98 15 23 15 C23.33 13.68 23.66 12.36 24 11 C24 13.31 24 15.62 24 18 C28.10789738 19.99170782 31.45100954 20.42915004 36 20 C36.66 19.01 37.32 18.02 38 17 C36.35 16.67 34.7 16.34 33 16 C33 14.35 33 12.7 33 11 C37.29 11 41.58 11 46 11 C46.495 12.485 46.495 12.485 47 14 C48.65 12.02 50.3 10.04 52 8 C48.04 7.67 44.08 7.34 40 7 C40 5.35 40 3.7 40 2 C42.66666667 2 45.33333333 2 48 2 C47.34 2.33 46.68 2.66 46 3 C46.99 3.33 47.98 3.66 49 4 C49 3.34 49 2.68 49 2 C54.60617761 1.87258687 54.60617761 1.87258687 57.125 2.6875 C59.17197042 3.24372498 59.17197042 3.24372498 61.25 1.5625 C61.8275 1.046875 62.405 0.53125 63 0 C63.99 0.495 63.99 0.495 65 1 C56.55177028 11.96472368 45.68832201 25.437226 32 30 C19.41841017 23.62060234 8.00486138 12.44224303 0 1 C0 0.67 0 0.34 0 0 Z " fill="#028802" transform="translate(29,117)"/>
<path d="M0 0 C0.66 0 1.32 0 2 0 C2.99 8.25 3.98 16.5 5 25 C8.96 25.33 12.92 25.66 17 26 C17.45572917 28.05078125 17.91145833 30.1015625 18.3671875 32.15234375 C18.82961523 34.20700294 18.82961523 34.20700294 21 35 C21.0928125 34.071875 21.0928125 34.071875 21.1875 33.125 C22 31 22 31 24.5625 29.75 C25.366875 29.5025 26.17125 29.255 27 29 C26.23357664 33.59854015 26.23357664 33.59854015 25 35.71875 C23.61099676 38.88741365 23.5662439 41.80760976 23.375 45.25 C23.30023438 46.51328125 23.22546875 47.7765625 23.1484375 49.078125 C23.09945312 50.04234375 23.05046875 51.0065625 23 52 C22.67 52 22.34 52 22 52 C22 46.72 22 41.44 22 36 C20.35 36 18.7 36 17 36 C16.34 34.35 15.68 32.7 15 31 C12.03 31 9.06 31 6 31 C6.78837928 34.52157764 7.58129779 38.04211857 8.375 41.5625 C8.59671875 42.55314453 8.8184375 43.54378906 9.046875 44.56445312 C10.22088562 49.76117659 11.46833052 54.89682084 13 60 C13.33 60 13.66 60 14 60 C14.28875 61.19625 14.5775 62.3925 14.875 63.625 C15.7524334 67.14726836 16.80020637 70.57201821 18 74 C18.66 74 19.32 74 20 74 C20.66 75.98 21.32 77.96 22 80 C23.65 80.33 25.3 80.66 27 81 C27 81.33 27 81.66 27 82 C23.82082888 82.63583422 21.16212088 82.79573108 18 82 C15.07020744 79.17193635 13.65103356 75.67969713 12 72 C11.71382812 71.40477539 11.42765625 70.80955078 11.1328125 70.19628906 C5.53463279 58.51547178 3.01242227 46.73515043 1 34 C0.82202881 33.05390869 0.64405762 32.10781738 0.46069336 31.13305664 C-0.02888186 27.80358191 -0.11308892 24.65338418 -0.09765625 21.2890625 C-0.09443359 20.04511719 -0.09121094 18.80117188 -0.08789062 17.51953125 C-0.07951172 16.23433594 -0.07113281 14.94914062 -0.0625 13.625 C-0.05798828 12.31660156 -0.05347656 11.00820313 -0.04882812 9.66015625 C-0.03707594 6.44005719 -0.02064543 3.2200523 0 0 Z " fill="#00DA00" transform="translate(9,33)"/>
<path d="M0 0 C2.89809389 -0.16250994 5.78704851 -0.28107636 8.6875 -0.375 C9.50412109 -0.42527344 10.32074219 -0.47554688 11.16210938 -0.52734375 C17.16119491 -0.67307052 17.16119491 -0.67307052 19.69775391 1.36230469 C21.08203125 3.0234375 21.08203125 3.0234375 23 6 C23.639375 5.195625 24.27875 4.39125 24.9375 3.5625 C27 1 27 1 28 0 C30.96940703 -0.12692296 33.90518257 -0.18521201 36.875 -0.1875 C38.11830078 -0.20586914 38.11830078 -0.20586914 39.38671875 -0.22460938 C40.58361328 -0.22750977 40.58361328 -0.22750977 41.8046875 -0.23046875 C42.90272705 -0.23663208 42.90272705 -0.23663208 44.02294922 -0.24291992 C46 0 46 0 49 2 C48.67 2.99 48.34 3.98 48 5 C46.35 5 44.7 5 43 5 C43 5.66 43 6.32 43 7 C34.01125107 11.52806543 26.26612731 14.77090696 16 13 C12.12451607 11.66067835 8.58022406 9.98901336 5 8 C4.34 7.67 3.68 7.34 3 7 C3 6.34 3 5.68 3 5 C6.72629456 6.00920478 10.21203162 7.08262122 13.75 8.625 C21.93839426 11.70750363 29.40314137 10.3668667 37.19921875 6.875 C37.79347656 6.58625 38.38773438 6.2975 39 6 C33.07068148 6.33388396 29.11019734 6.84370164 24 10 C22.6465567 9.37516926 21.31546659 8.70126306 20 8 C18.52010154 7.61576673 17.02569834 7.28451188 15.5234375 7 C14.688125 6.835 13.8528125 6.67 12.9921875 6.5 C11.23985784 6.16522657 9.48725016 5.83190535 7.734375 5.5 C6.90164062 5.335 6.06890625 5.17 5.2109375 5 C4.45087402 4.855625 3.69081055 4.71125 2.90771484 4.5625 C1 4 1 4 -1 2 C-0.67 1.34 -0.34 0.68 0 0 Z " fill="#E2D913" transform="translate(38,99)"/>
<path d="M0 0 C0.66 0.33 1.32 0.66 2 1 C-6.44822972 11.96472368 -17.31167799 25.437226 -31 30 C-31.66 29.34 -32.32 28.68 -33 28 C-27.25 24 -27.25 24 -25 24 C-24.731875 23.4225 -24.46375 22.845 -24.1875 22.25 C-22.98280141 19.9674132 -21.59201885 18.0262058 -20 16 C-20.33 16 -20.66 16 -21 16 C-21 14.35 -21 12.7 -21 11 C-19.68 11 -18.36 11 -17 11 C-16.67 11.99 -16.34 12.98 -16 14 C-14.35 12.02 -12.7 10.04 -11 8 C-14.96 7.67 -18.92 7.34 -23 7 C-23 5.35 -23 3.7 -23 2 C-20.33333333 2 -17.66666667 2 -15 2 C-15.99 2.495 -15.99 2.495 -17 3 C-16.01 3.33 -15.02 3.66 -14 4 C-14 3.34 -14 2.68 -14 2 C-8.39382239 1.87258687 -8.39382239 1.87258687 -5.875 2.6875 C-3.82802958 3.24372498 -3.82802958 3.24372498 -1.75 1.5625 C-1.1725 1.046875 -0.595 0.53125 0 0 Z " fill="#028702" transform="translate(92,117)"/>
<path d="M0 0 C4.42373193 3.50847705 5.90618084 7.61872909 7 13 C7.85259667 23.09999137 6.03822417 30.3469524 1 39 C0.44538086 38.9685791 -0.10923828 38.9371582 -0.68066406 38.90478516 C-3.20335792 38.7797583 -5.72540122 38.70194713 -8.25 38.625 C-9.12269531 38.57472656 -9.99539062 38.52445313 -10.89453125 38.47265625 C-13.39939967 38.41529285 -15.55856702 38.42747155 -18 39 C-20.68539166 41.83491093 -20.68539166 41.83491093 -22 45 C-24 43 -26 41 -28 39 C-33.60539524 38.89127723 -33.60539524 38.89127723 -39.2109375 38.921875 C-45.11532368 38.7872473 -45.11532368 38.7872473 -47.65820312 36.52441406 C-51.92088059 30.78053285 -52.18153996 25.52092467 -52.1875 18.5 C-52.19974609 17.74074219 -52.21199219 16.98148438 -52.22460938 16.19921875 C-52.23479204 12.3230174 -52.20641411 9.27909765 -50 6 C-49.67 6 -49.34 6 -49 6 C-49.02618408 6.55872803 -49.05236816 7.11745605 -49.0793457 7.69311523 C-49.93886613 22.19310998 -49.93886613 22.19310998 -44 35 C-44 35.66 -44 36.32 -44 37 C-37.93041252 36.98062049 -31.8622832 36.92902848 -25.79321289 36.84741211 C-23.72818952 36.82419866 -21.6630472 36.80982857 -19.59790039 36.80444336 C-16.63091615 36.79517822 -13.66581155 36.7542418 -10.69921875 36.70703125 C-9.7741301 36.7109639 -8.84904144 36.71489655 -7.8959198 36.71894836 C-5.48991035 36.66403567 -3.33418891 36.58761739 -1 36 C1.04752045 33.60259953 1.04752045 33.60259953 2 31 C2.66 31 3.32 31 4 31 C4.63910222 16.03526311 4.63910222 16.03526311 0 2 C0 1.34 0 0.68 0 0 Z " fill="#054329" transform="translate(84,61)"/>
<path d="M0 0 C0.66 -0.66 1.32 -1.32 2 -2 C4.625 -2.125 4.625 -2.125 7 -2 C5.02 -1.01 5.02 -1.01 3 0 C3 0.99 3 1.98 3 3 C3.66 3 4.32 3 5 3 C5.495 5.475 5.495 5.475 6 8 C2.7 8 -0.6 8 -4 8 C-4 7.01 -4 6.02 -4 5 C-4.66 5 -5.32 5 -6 5 C-6.33 5.99 -6.66 6.98 -7 8 C-15.57142857 8.28571429 -15.57142857 8.28571429 -19 6 C-18.67 5.01 -18.34 4.02 -18 3 C-19.32 3 -20.64 3 -22 3 C-22.33 3.99 -22.66 4.98 -23 6 C-23 5.01 -23 4.02 -23 3 C-23.66 3 -24.32 3 -25 3 C-25.33 3.99 -25.66 4.98 -26 6 C-26.33 5.34 -26.66 4.68 -27 4 C-27.66 4 -28.32 4 -29 4 C-29 2.68 -29 1.36 -29 0 C-25.95872183 -0.33725065 -22.91705809 -0.66992332 -19.875 -1 C-19.0190625 -1.09539062 -18.163125 -1.19078125 -17.28125 -1.2890625 C-4.3565492 -2.68095336 -4.3565492 -2.68095336 0 0 Z " fill="#00D401" transform="translate(62,116)"/>
<path d="M0 0 C1.22589844 0.01353516 1.22589844 0.01353516 2.4765625 0.02734375 C3.41628906 0.04474609 3.41628906 0.04474609 4.375 0.0625 C4.045 1.0525 3.715 2.0425 3.375 3.0625 C2.715 3.0625 2.055 3.0625 1.375 3.0625 C1.436875 3.825625 1.49875 4.58875 1.5625 5.375 C1.375 8.0625 1.375 8.0625 -0.125 9.875 C-0.62 10.266875 -1.115 10.65875 -1.625 11.0625 C0.025 10.7325 1.675 10.4025 3.375 10.0625 C3.375 10.7225 3.375 11.3825 3.375 12.0625 C4.365 12.0625 5.355 12.0625 6.375 12.0625 C6.705 10.7425 7.035 9.4225 7.375 8.0625 C7.375 9.7125 7.375 11.3625 7.375 13.0625 C9.355 13.0625 11.335 13.0625 13.375 13.0625 C13.375 14.7125 13.375 16.3625 13.375 18.0625 C10.36468256 18.99673645 9.50849732 19.10699911 6.375 18.0625 C3.75960418 17.96552785 1.1770917 17.92327738 -1.4375 17.9375 C-2.13681641 17.93363281 -2.83613281 17.92976563 -3.55664062 17.92578125 C-7.68465562 17.93350438 -11.57627695 18.26165368 -15.625 19.0625 C-14.9134375 18.1653125 -14.9134375 18.1653125 -14.1875 17.25 C-12.46034256 15.05867076 -12.46034256 15.05867076 -11.625 12.0625 C-9.01637376 11.03118265 -6.38452365 10.63192551 -3.625 10.0625 C-4.615 7.0925 -5.605 4.1225 -6.625 1.0625 C-4.21954362 -0.14022819 -2.67503047 -0.03821472 0 0 Z " fill="#F6EC11" transform="translate(62.625,26.9375)"/>
<path d="M0 0 C9 0.75 9 0.75 12 4 C12 4.99 12 5.98 12 7 C12.58523437 7.25652344 13.17046875 7.51304688 13.7734375 7.77734375 C16.19234608 9.10562162 17.73198872 10.56524801 19.625 12.5625 C22.04521959 15.14015389 22.04521959 15.14015389 25 17 C25 14.69 25 12.38 25 10 C28.63 10 32.26 10 36 10 C36 11.32 36 12.64 36 14 C33.03 14 30.06 14 27 14 C26.67 16.31 26.34 18.62 26 21 C24.68 21 23.36 21 22 21 C22 20.34 22 19.68 22 19 C21.34 19 20.68 19 20 19 C20.33 19.99 20.66 20.98 21 22 C21.068991 24.06145107 21.08467727 26.12501401 21.0625 28.1875 C21.05347656 29.27417969 21.04445313 30.36085938 21.03515625 31.48046875 C21.02355469 32.31191406 21.01195313 33.14335938 21 34 C20.67 34 20.34 34 20 34 C19.90203125 33.07058594 19.8040625 32.14117187 19.703125 31.18359375 C18.59803958 19.96886335 18.59803958 19.96886335 11.9609375 11.359375 C10.5365253 10.32252372 9.0868083 9.31916744 7.609375 8.359375 C7.07828125 7.91078125 6.5471875 7.4621875 6 7 C6 6.01 6 5.02 6 4 C4.02 3.34 2.04 2.68 0 2 C0 1.34 0 0.68 0 0 Z " fill="#097307" transform="translate(71,49)"/>
<path d="M0 0 C-0.33 0.99 -0.66 1.98 -1 3 C-3.9140625 4.3515625 -3.9140625 4.3515625 -7.625 5.625 C-8.83414063 6.05039062 -10.04328125 6.47578125 -11.2890625 6.9140625 C-14.92609335 7.97837258 -18.24955902 8.56614436 -22 9 C-22 9.66 -22 10.32 -22 11 C-29.26308189 12.32056034 -38.4379266 13.96230208 -45 10 C-45 9.34 -45 8.68 -45 8 C-44.1843457 7.89977539 -43.36869141 7.79955078 -42.52832031 7.69628906 C-39.44056342 7.31086569 -36.35447399 6.91433127 -33.26904297 6.51074219 C-31.30151251 6.2566524 -29.33240399 6.01487768 -27.36328125 5.7734375 C-20.05058473 4.80831004 -13.38878886 3.40394838 -6.47949219 0.79589844 C-4 0 -4 0 0 0 Z " fill="#AFF0B0" transform="translate(54,19)"/>
<path d="M0 0 C2.50600314 2.50600314 2.97054791 4.18594425 3.09765625 7.69921875 C3.08605469 8.68535156 3.07445313 9.67148438 3.0625 10.6875 C3.05347656 11.68136719 3.04445313 12.67523438 3.03515625 13.69921875 C3.02355469 14.45847656 3.01195313 15.21773437 3 16 C3.99 16 4.98 16 6 16 C5.34 11.71 4.68 7.42 4 3 C7.81501024 8.08668032 7.27060745 9.86623115 7 16 C10.3 16 13.6 16 17 16 C17 16.99 17 17.98 17 19 C5.45 19 -6.1 19 -18 19 C-17.505 17.515 -17.505 17.515 -17 16 C-12.71 16 -8.42 16 -4 16 C-4.04125 14.22625 -4.0825 12.4525 -4.125 10.625 C-4.1953125 7.6015625 -4.1953125 7.6015625 -4 5 C-3.34 4.34 -2.68 3.68 -2 3 C-2 7.29 -2 11.58 -2 16 C-1.01 16 -0.02 16 1 16 C0.835 15.030625 0.67 14.06125 0.5 13.0625 C-0.13396273 8.70512237 -0.0896672 4.39369296 0 0 Z " fill="#C5C325" transform="translate(61,79)"/>
<path d="M0 0 C0.66 0.33 1.32 0.66 2 1 C0.71308717 14.83431291 -5.3362872 28.50443079 -13 40 C-15.8203125 40.29296875 -15.8203125 40.29296875 -19.125 40.1875 C-20.76855469 40.14689453 -20.76855469 40.14689453 -22.4453125 40.10546875 C-23.70988281 40.05326172 -23.70988281 40.05326172 -25 40 C-25 39.67 -25 39.34 -25 39 C-23.906875 38.938125 -22.81375 38.87625 -21.6875 38.8125 C-17.92824544 38.41569541 -17.92824544 38.41569541 -16.4375 35.8125 C-14.98287053 32.96648582 -13.61387991 30.1068117 -12.3125 27.1875 C-11.87550781 26.21167969 -11.43851563 25.23585938 -10.98828125 24.23046875 C-10.66214844 23.49441406 -10.33601563 22.75835937 -10 22 C-9.01 22 -8.02 22 -7 22 C-6.80664062 21.33613281 -6.61328125 20.67226562 -6.4140625 19.98828125 C-5.10991491 15.56580056 -3.73283751 11.27433253 -2 7 C-1.31320058 4.67251306 -0.64238957 2.34013344 0 0 Z " fill="#01AE01" transform="translate(109,75)"/>
<path d="M0 0 C1.03382812 0.13535156 2.06765625 0.27070313 3.1328125 0.41015625 C6.95593303 0.88952064 10.78398818 1.2933457 14.6171875 1.68359375 C16.39222656 1.86825195 16.39222656 1.86825195 18.203125 2.05664062 C20.6738368 2.31291126 23.14521819 2.56279814 25.6171875 2.80664062 C27.380625 2.99323242 27.380625 2.99323242 29.1796875 3.18359375 C30.24944824 3.29243896 31.31920898 3.40128418 32.42138672 3.51342773 C35 4 35 4 37 6 C33.99434299 8.92066414 31.55750276 9.37954522 27.41479492 9.41625977 C26.7210376 9.40264404 26.02728027 9.38902832 25.3125 9.375 C24.60005127 9.36847412 23.88760254 9.36194824 23.15356445 9.35522461 C17.67315366 9.2161722 13.0273354 8.23051893 8 6 C7.01 5.67 6.02 5.34 5 5 C5 4.34 5 3.68 5 3 C3.35 2.67 1.7 2.34 0 2 C0 1.34 0 0.68 0 0 Z " fill="#B3FDB2" transform="translate(76,22)"/>
<path d="M0 0 C2.25 0.9375 2.25 0.9375 4.25 3.9375 C3.486875 3.875625 2.72375 3.81375 1.9375 3.75 C-0.71881564 3.6885792 -0.71881564 3.6885792 -2.3125 5.125 C-3.0240625 6.0221875 -3.0240625 6.0221875 -3.75 6.9375 C-4.41 7.5975 -5.07 8.2575 -5.75 8.9375 C-8.63435129 13.26402694 -9.58830214 17.9122767 -10.75 22.9375 C-9.43 23.2675 -8.11 23.5975 -6.75 23.9375 C-10.05 23.9375 -13.35 23.9375 -16.75 23.9375 C-16.97552339 18.29941513 -16.27663487 13.99076974 -13.75 8.9375 C-13.09 8.9375 -12.43 8.9375 -11.75 8.9375 C-11.42 7.9475 -11.09 6.9575 -10.75 5.9375 C-10.09 5.9375 -9.43 5.9375 -8.75 5.9375 C-8.75 5.2775 -8.75 4.6175 -8.75 3.9375 C-3.80622236 -0.08650505 -3.80622236 -0.08650505 0 0 Z " fill="#BABA34" transform="translate(60.75,72.0625)"/>
<path d="M0 0 C2.5400185 1.08310223 4.25994539 2.48505957 6.3203125 4.3203125 C7.02671875 4.93777344 7.733125 5.55523437 8.4609375 6.19140625 C10.0703125 7.8828125 10.0703125 7.8828125 10.0703125 9.8828125 C8.3203125 11.609375 8.3203125 11.609375 6.0703125 13.5078125 C5.3278125 14.13945313 4.5853125 14.77109375 3.8203125 15.421875 C2.9540625 16.14503906 2.9540625 16.14503906 2.0703125 16.8828125 C1.4103125 16.5528125 0.7503125 16.2228125 0.0703125 15.8828125 C0.0703125 13.9028125 0.0703125 11.9228125 0.0703125 9.8828125 C-3.2296875 9.8828125 -6.5296875 9.8828125 -9.9296875 9.8828125 C-8.36355055 6.75053859 -7.37162176 4.98928791 -5.0546875 2.5703125 C-4.31605469 1.77173828 -4.31605469 1.77173828 -3.5625 0.95703125 C-1.9296875 -0.1171875 -1.9296875 -0.1171875 0 0 Z " fill="#EEEA10" transform="translate(25.9296875,49.1171875)"/>
<path d="M0 0 C2.90782833 1.31484411 5.00641558 2.73375311 7.25 5 C7.77078125 5.515625 8.2915625 6.03125 8.828125 6.5625 C10 8 10 8 10 10 C6.37 10 2.74 10 -1 10 C-1 12.31 -1 14.62 -1 17 C-4.81684226 15.44499019 -7.19195732 12.96404505 -10 10 C-8.5741914 6.54804233 -6.90253666 4.8985744 -3.875 2.75 C-3.15054688 2.22921875 -2.42609375 1.7084375 -1.6796875 1.171875 C-1.12539062 0.78515625 -0.57109375 0.3984375 0 0 Z " fill="#EBE810" transform="translate(97,49)"/>
<path d="M0 0 C3.05275209 1.33234519 5.96995754 2.83379203 8.91015625 4.3984375 C13.15121801 6.59671224 17.53338511 8.32007847 22 10 C21.67 10.66 21.34 11.32 21 12 C20.1028125 11.6390625 19.205625 11.278125 18.28125 10.90625 C6.18870394 6.3074454 -5.3446 5.17801608 -17.984375 8.7578125 C-20.5570055 9.06692702 -21.82297564 8.32386616 -24 7 C-23.19175781 6.74605469 -22.38351563 6.49210937 -21.55078125 6.23046875 C-20.48214844 5.88628906 -19.41351563 5.54210937 -18.3125 5.1875 C-17.25675781 4.85105469 -16.20101562 4.51460937 -15.11328125 4.16796875 C-2.89930796 -0.41418685 -2.89930796 -0.41418685 0 0 Z " fill="#26FA1A" transform="translate(64,21)"/>
<path d="M0 0 C0 0.66 0 1.32 0 2 C-7.5 3.5 -7.5 3.5 -15 5 C-15 5.66 -15 6.32 -15 7 C-16.33333333 8.33333333 -17.66666667 9.66666667 -19 11 C-19.33 11.66 -19.66 12.32 -20 13 C-21 15 -21 15 -23 16.9375 C-26.86637204 20.92469616 -27.4835361 25.13377235 -27.40234375 30.51953125 C-26.77659852 34.37728097 -25.01725174 37.46980945 -23.09375 40.8359375 C-22 43 -22 43 -22 46 C-21.34 46.33 -20.68 46.66 -20 47 C-20.99 47 -21.98 47 -23 47 C-23.433125 46.113125 -23.86625 45.22625 -24.3125 44.3125 C-25.85236716 41.09819312 -25.85236716 41.09819312 -27.58203125 38.74609375 C-30.82717955 32.46141262 -29.80074658 22.71231688 -27.9375 16 C-26.07590534 11.30168966 -22.79713085 8.2183534 -19 5 C-18.34 4.401875 -17.68 3.80375 -17 3.1875 C-11.55687546 -0.04435519 -6.12383536 -0.21487142 0 0 Z " fill="#14ADAC" transform="translate(63,51)"/>
<path d="M0 0 C1.98 0.495 1.98 0.495 4 1 C4 8.92 4 16.84 4 25 C1.525 24.01 1.525 24.01 -1 23 C-1.02887512 19.35418313 -1.04675585 15.70839537 -1.0625 12.0625 C-1.07087891 11.02158203 -1.07925781 9.98066406 -1.08789062 8.90820312 C-1.09272461 7.42416992 -1.09272461 7.42416992 -1.09765625 5.91015625 C-1.10289307 4.99371338 -1.10812988 4.07727051 -1.11352539 3.13305664 C-1 1 -1 1 0 0 Z " fill="#A5A115" transform="translate(64,50)"/>
<path d="M0 0 C1.32 0 2.64 0 4 0 C4 5.61 4 11.22 4 17 C3.34 17 2.68 17 2 17 C2 18.98 2 20.96 2 23 C1.34 23 0.68 23 0 23 C-0.33 24.32 -0.66 25.64 -1 27 C-1.66 26.67 -2.32 26.34 -3 26 C-2.69420378 22.04111854 -2.37923148 18.0830204 -2.0625 14.125 C-1.97548828 12.99707031 -1.88847656 11.86914062 -1.79882812 10.70703125 C-1.71181641 9.63066406 -1.62480469 8.55429687 -1.53515625 7.4453125 C-1.456604 6.45031738 -1.37805176 5.45532227 -1.29711914 4.43017578 C-1 2 -1 2 0 0 Z " fill="#00ED00" transform="translate(110,33)"/>
<path d="M0 0 C2.91821463 -0.13510253 5.83017652 -0.2341305 8.75 -0.3125 C9.9875 -0.3753418 9.9875 -0.3753418 11.25 -0.43945312 C17.37759529 -0.56299335 17.37759529 -0.56299335 20.578125 2.33203125 C22 5 22 5 22 8 C18.53928941 7.38771358 15.08197134 6.75802982 11.625 6.125 C10.64015625 5.95097656 9.6553125 5.77695313 8.640625 5.59765625 C7.69960938 5.42363281 6.75859375 5.24960938 5.7890625 5.0703125 C4.91975098 4.91320801 4.05043945 4.75610352 3.15478516 4.59423828 C1 4 1 4 -1 2 C-0.67 1.34 -0.34 0.68 0 0 Z " fill="#EFE511" transform="translate(38,99)"/>
<path d="M0 0 C6.15234375 0.5859375 6.15234375 0.5859375 8 1 C8.33 1.66 8.66 2.32 9 3 C6.03 2.505 6.03 2.505 3 2 C3.85006086 4.26716429 3.85006086 4.26716429 6.5 4.9375 C7.325 5.288125 8.15 5.63875 9 6 C9.33 6.99 9.66 7.98 10 9 C10.928125 9.721875 11.85625 10.44375 12.8125 11.1875 C16.40554395 14.05152054 18.72262492 17.56882989 20 22 C19.59765625 24.24609375 19.59765625 24.24609375 19 26 C17.5393715 23.35261084 17 22.10551666 17 19 C16.34 19 15.68 19 15 19 C14.505 17.6696875 14.505 17.6696875 14 16.3125 C11.06401004 11.44976663 6.87520221 9.33253579 1.80859375 6.984375 C0 6 0 6 -1 4 C-2.89611434 4.14213297 -4.79188394 4.28886907 -6.6875 4.4375 C-7.74324219 4.51871094 -8.79898438 4.59992187 -9.88671875 4.68359375 C-12.65086297 4.96451681 -15.28945741 5.40156852 -18 6 C-18 5.34 -18 4.68 -18 4 C-12.01314152 2.73638028 -6.08233706 1.67581523 0 1 C0 0.67 0 0.34 0 0 Z " fill="#208247" transform="translate(68,47)"/>
<path d="M0 0 C3.26023324 0.22484367 4.93132641 0.5260489 7.625 2.25 C7.625 2.91 7.625 3.57 7.625 4.25 C8.31464844 4.43175781 9.00429687 4.61351562 9.71484375 4.80078125 C15.7633267 6.41868821 21.70847343 8.2038679 27.625 10.25 C31.28350355 11.46950118 34.68903569 11.47253359 38.5 11.5 C39.56154297 11.5309375 39.56154297 11.5309375 40.64453125 11.5625 C45.18227472 11.5963007 47.97612424 10.96877017 51.625 8.25 C50.625 11.25 50.625 11.25 47.625 13.25 C45.69897461 13.50878906 45.69897461 13.50878906 43.52734375 13.515625 C42.33286621 13.52227173 42.33286621 13.52227173 41.11425781 13.52905273 C40.27217773 13.51946533 39.43009766 13.50987793 38.5625 13.5 C37.26650879 13.48658569 37.26650879 13.48658569 35.94433594 13.47290039 C25.72164166 13.28684041 18.30652168 11.30257497 9.11401367 6.79443359 C4.28704008 4.45246899 -0.09521099 3.0836509 -5.375 2.25 C-3.375 0.25 -3.375 0.25 0 0 Z " fill="#4DFD4D" transform="translate(62.375,18.75)"/>
<path d="M0 0 C3.58526066 0.78310112 7.16781375 1.57796356 10.75 2.375 C11.76578125 2.59671875 12.7815625 2.8184375 13.828125 3.046875 C14.8078125 3.26601562 15.7875 3.48515625 16.796875 3.7109375 C18.14797363 4.00943604 18.14797363 4.00943604 19.52636719 4.31396484 C22 5 22 5 24.17797852 6.16381836 C24.77924561 6.4397583 25.3805127 6.71569824 26 7 C27.69186095 6.04324281 29.35603054 5.03689063 31 4 C34.11328125 3.48828125 34.11328125 3.48828125 37.3125 3.3125 C38.38113281 3.24675781 39.44976562 3.18101563 40.55078125 3.11328125 C41.76314453 3.05720703 41.76314453 3.05720703 43 3 C38.40184131 7.59815869 31.73685809 9.2689152 25.375 9.4375 C21.25947601 9.27057665 17.95245113 8.57463421 14.19140625 6.93359375 C11.34580663 5.7212973 8.4379121 4.77805941 5.5 3.8125 C4.4584375 3.46832031 3.416875 3.12414062 2.34375 2.76953125 C1.5703125 2.51558594 0.796875 2.26164062 0 2 C0 1.34 0 0.68 0 0 Z " fill="#254731" transform="translate(36,101)"/>
<path d="M0 0 C0.94746094 -0.01417969 1.89492188 -0.02835938 2.87109375 -0.04296875 C5.60751644 0.19135482 7.22678123 0.79048617 9.5625 2.1875 C9.5625 2.5175 9.5625 2.8475 9.5625 3.1875 C3.2925 3.8475 -2.9775 4.5075 -9.4375 5.1875 C-9.4375 5.8475 -9.4375 6.5075 -9.4375 7.1875 C-12.94526784 8.79105101 -15.58104879 9.40786864 -19.4375 9.1875 C-18.43499943 6.60267421 -17.79350992 5.4002953 -15.37890625 3.95703125 C-14.59386719 3.64121094 -13.80882812 3.32539062 -13 3 C-12.21753906 2.67644531 -11.43507813 2.35289063 -10.62890625 2.01953125 C-6.89646465 0.60240102 -3.98493933 0.02703487 0 0 Z " fill="#01AD01" transform="translate(59.4375,45.8125)"/>
<path d="M0 0 C1.45742463 -0.08096803 2.91612807 -0.13917774 4.375 -0.1875 C5.18710938 -0.22230469 5.99921875 -0.25710937 6.8359375 -0.29296875 C7.55007812 -0.19628906 8.26421875 -0.09960938 9 0 C11 3 11 3 10.9375 4.875 C9.48527244 8.1667158 7.85836152 9.79667966 5 12 C1.95004855 12.94597425 -0.81743878 13.3325064 -4 13 C-6.5625 11.0625 -6.5625 11.0625 -8 9 C-7.22914062 9.03480469 -6.45828125 9.06960937 -5.6640625 9.10546875 C-4.15972656 9.14607422 -4.15972656 9.14607422 -2.625 9.1875 C-1.62726562 9.22230469 -0.62953125 9.25710937 0.3984375 9.29296875 C1.68621094 9.14794922 1.68621094 9.14794922 3 9 C3.66 8.01 4.32 7.02 5 6 C3.35 5.67 1.7 5.34 0 5 C0 3.35 0 1.7 0 0 Z " fill="#00D500" transform="translate(62,128)"/>
<path d="M0 0 C0 0.99 0 1.98 0 3 C-1.65 3 -3.3 3 -5 3 C-5 3.66 -5 4.32 -5 5 C-13.98874893 9.52806543 -21.73387269 12.77090696 -32 11 C-35.87548393 9.66067835 -39.41977594 7.98901336 -43 6 C-43.66 5.67 -44.32 5.34 -45 5 C-45 4.34 -45 3.68 -45 3 C-41.27370544 4.00920478 -37.78796838 5.08262122 -34.25 6.625 C-27.18786399 9.2835261 -20.36162388 8.80761733 -13.4375 6 C-12.63183594 5.62875 -11.82617188 5.2575 -10.99609375 4.875 C-9 4 -9 4 -7 4 C-7 3.34 -7 2.68 -7 2 C-4.69 1.34 -2.38 0.68 0 0 Z " fill="#63DA5B" transform="translate(86,101)"/>
<path d="M0 0 C0.99 0 1.98 0 3 0 C2.34 5.61 1.68 11.22 1 17 C-1.31 17 -3.62 17 -6 17 C-5.83349546 10.4609126 -4.61934786 4.89971291 0 0 Z " fill="#58572D" transform="translate(56,78)"/>
<path d="M0 0 C3.63 0 7.26 0 11 0 C11 1.32 11 2.64 11 4 C8.03 4 5.06 4 2 4 C1.67 6.31 1.34 8.62 1 11 C-0.32 11 -1.64 11 -3 11 C-3 10.34 -3 9.68 -3 9 C-3.66 9 -4.32 9 -5 9 C-4.67 9.99 -4.34 10.98 -4 12 C-3.931009 14.06145107 -3.91532273 16.12501401 -3.9375 18.1875 C-3.94652344 19.27417969 -3.95554687 20.36085938 -3.96484375 21.48046875 C-3.97644531 22.31191406 -3.98804687 23.14335938 -4 24 C-4.33 24 -4.66 24 -5 24 C-5.66 18.06 -6.32 12.12 -7 6 C-2 8 -2 8 0 9 C0 6.03 0 3.06 0 0 Z " fill="#00CC00" transform="translate(96,59)"/>
<path d="M0 0 C0.66 0 1.32 0 2 0 C2.36905201 3.33185753 2.71748271 6.66557486 3.0625 10 C3.16626953 10.93457031 3.27003906 11.86914062 3.37695312 12.83203125 C3.94503242 18.43446842 4.12183045 23.46136282 3 29 C2.34 29.33 1.68 29.66 1 30 C-0.40912096 27.18175808 -0.11183553 24.82748718 -0.09765625 21.6796875 C-0.09443359 20.42285156 -0.09121094 19.16601562 -0.08789062 17.87109375 C-0.07951172 16.55238281 -0.07113281 15.23367187 -0.0625 13.875 C-0.05748489 12.53515789 -0.05292201 11.195314 -0.04882812 9.85546875 C-0.03701086 6.57026794 -0.02053617 3.28515603 0 0 Z " fill="#00DD00" transform="translate(9,33)"/>
<path d="M0 0 C0.33 0 0.66 0 1 0 C0.97381592 0.55872803 0.94763184 1.11745605 0.9206543 1.69311523 C0.06113387 16.19310998 0.06113387 16.19310998 6 29 C6 29.66 6 30.32 6 31 C6.99 31.33 7.98 31.66 9 32 C6.8125 32.4375 6.8125 32.4375 4 32 C-1.73939378 26.22880902 -2.18084403 20.34073206 -2.1875 12.5 C-2.19974609 11.74074219 -2.21199219 10.98148438 -2.22460938 10.19921875 C-2.23479204 6.3230174 -2.20641411 3.27909765 0 0 Z " fill="#045140" transform="translate(34,67)"/>
<path d="M0 0 C0.598125 0.33 1.19625 0.66 1.8125 1 C4.05386471 2.20787988 4.05386471 2.20787988 7 2 C10.59378942 7.39068413 11.45356243 10.53673535 11 17 C9.35 17 7.7 17 6 17 C5.85304688 16.03900391 5.85304688 16.03900391 5.703125 15.05859375 C4.69296191 9.21532275 3.24025175 4.96838601 0 0 Z " fill="#576E2D" transform="translate(66,78)"/>
<path d="M0 0 C11.55 0 23.1 0 35 0 C35 0.33 35 0.66 35 1 C34.18015625 1.00257812 33.3603125 1.00515625 32.515625 1.0078125 C26.51489732 0.95709921 26.51489732 0.95709921 21.3125 3.40234375 C20.09181658 5.20836633 20.09181658 5.20836633 19 8 C17 6 15 4 13 2 C10.81707226 1.76518307 8.62796826 1.58636677 6.4375 1.4375 C5.23996094 1.35371094 4.04242188 1.26992187 2.80859375 1.18359375 C1.88175781 1.12300781 0.95492187 1.06242187 0 1 C0 0.67 0 0.34 0 0 Z " fill="#262306" transform="translate(43,98)"/>
<path d="M0 0 C2.25 0.9375 2.25 0.9375 4.25 3.9375 C3.486875 3.875625 2.72375 3.81375 1.9375 3.75 C-1.28460351 3.97479792 -1.61085475 4.70534843 -3.75 6.9375 C-5.07 6.9375 -6.39 6.9375 -7.75 6.9375 C-9.24735212 8.31044846 -9.24735212 8.31044846 -10.375 10.1875 C-10.79394531 10.82300781 -11.21289062 11.45851563 -11.64453125 12.11328125 C-12.79401188 14.01012738 -13.85616556 15.90605809 -14.75 17.9375 C-15.375 15.125 -15.375 15.125 -15.75 11.9375 C-15.09 10.9475 -14.43 9.9575 -13.75 8.9375 C-13.09 8.9375 -12.43 8.9375 -11.75 8.9375 C-11.42 7.9475 -11.09 6.9575 -10.75 5.9375 C-10.09 5.9375 -9.43 5.9375 -8.75 5.9375 C-8.75 5.2775 -8.75 4.6175 -8.75 3.9375 C-3.80622236 -0.08650505 -3.80622236 -0.08650505 0 0 Z " fill="#AABC63" transform="translate(60.75,72.0625)"/>
<path d="M0 0 C-0.93972656 0.79664063 -0.93972656 0.79664063 -1.8984375 1.609375 C-2.71570313 2.31578125 -3.53296875 3.0221875 -4.375 3.75 C-5.59316406 4.79414062 -5.59316406 4.79414062 -6.8359375 5.859375 C-8.85795807 7.85949643 -9.93231229 9.39531129 -11 12 C-11.33 10.68 -11.66 9.36 -12 8 C-13.32 8.33 -14.64 8.66 -16 9 C-16.33 10.32 -16.66 11.64 -17 13 C-17.99 12.67 -18.98 12.34 -20 12 C-10.41076298 0.61450821 -10.41076298 0.61450821 -4.8125 -0.8125 C-2 -1 -2 -1 0 0 Z " fill="#0E6610" transform="translate(47,55)"/>
<path d="M0 0 C0 0.66 0 1.32 0 2 C-0.61746094 2.09796875 -1.23492187 2.1959375 -1.87109375 2.296875 C-11.86782861 4.06189972 -18.95274099 6.55755212 -25 15 C-25.33 14.01 -25.66 13.02 -26 12 C-17.82810223 3.62150931 -12.1310894 -0.42565226 0 0 Z " fill="#71B4B1" transform="translate(63,51)"/>
<path d="M0 0 C0.66 0 1.32 0 2 0 C2.26305952 8.2425317 1.60614551 15.91191011 0 24 C-0.66 23.67 -1.32 23.34 -2 23 C-1.85823579 20.29139876 -1.71171784 17.58319248 -1.5625 14.875 C-1.50352539 13.73417969 -1.50352539 13.73417969 -1.44335938 12.5703125 C-1.20490998 8.31490797 -0.79769763 4.19629174 0 0 Z " fill="#01B801" transform="translate(112,50)"/>
<path d="M0 0 C0.99 0 1.98 0 3 0 C3 5.61 3 11.22 3 17 C2.34 17 1.68 17 1 17 C1 18.98 1 20.96 1 23 C0.67 23 0.34 23 0 23 C0 15.41 0 7.82 0 0 Z " fill="#00D600" transform="translate(111,33)"/>
<path d="M0 0 C2.79256219 0.11361602 5.58344118 0.2403589 8.375 0.375 C9.1690625 0.4059375 9.963125 0.436875 10.78125 0.46875 C16.7734375 0.7734375 16.7734375 0.7734375 19 3 C15.93627443 6.02383331 13.39327301 6.36528057 9.15625 6.36132812 C8.4446875 6.34521484 7.733125 6.32910156 7 6.3125 C6.2884375 6.31572266 5.576875 6.31894531 4.84375 6.32226562 C1.08589879 6.28370558 -1.81263319 6.08340903 -5 4 C-1.04294544 2.54160103 2.69831388 3.32093907 6.75 3.9375 C7.44738281 4.03740234 8.14476563 4.13730469 8.86328125 4.24023438 C10.57651726 4.48665873 12.28840725 4.74240955 14 5 C14 4.34 14 3.68 14 3 C11.36 3 8.72 3 6 3 C6 2.34 6 1.68 6 1 C4.02 1 2.04 1 0 1 C0 0.67 0 0.34 0 0 Z " fill="#87FD87" transform="translate(94,25)"/>
<path d="M0 0 C0.33 2.31 0.66 4.62 1 7 C-2.08809695 8.76462683 -3.23312136 9 -7 9 C-7 9.99 -7 10.98 -7 12 C-7.66 12 -8.32 12 -9 12 C-9.33 10.35 -9.66 8.7 -10 7 C-9.34 6.67 -8.68 6.34 -8 6 C-8 5.34 -8 4.68 -8 4 C-7.34 4 -6.68 4 -6 4 C-6 4.66 -6 5.32 -6 6 C-5.01 6 -4.02 6 -3 6 C-3.33 4.35 -3.66 2.7 -4 1 C-2 0 -2 0 0 0 Z " fill="#575620" transform="translate(58,30)"/>
<path d="M0 0 C5.94 0 11.88 0 18 0 C18 0.66 18 1.32 18 2 C15.94921875 2.22786458 13.8984375 2.45572917 11.84765625 2.68359375 C9.98859771 2.81886614 9.98859771 2.81886614 9 4 C3.26388889 4.27314815 3.26388889 4.27314815 1 4 C0.34 3.34 -0.32 2.68 -1 2 C-0.67 1.34 -0.34 0.68 0 0 Z " fill="#E6DF14" transform="translate(38,99)"/>
<path d="M0 0 C5.94 2.475 5.94 2.475 12 5 C11.01 5.495 11.01 5.495 10 6 C10 6.66 10 7.32 10 8 C11.65 8.33 13.3 8.66 15 9 C12.83032311 9.95465783 11.43671207 10.14401212 9.17578125 9.3984375 C7.4315257 8.64129615 5.71372869 7.82390802 4 7 C4 6.34 4 5.68 4 5 C3.360625 4.87625 2.72125 4.7525 2.0625 4.625 C1.381875 4.41875 0.70125 4.2125 0 4 C-0.33 3.34 -0.66 2.68 -1 2 C-0.67 1.34 -0.34 0.68 0 0 Z " fill="#8CF18C" transform="translate(66,16)"/>
<path d="M0 0 C1.98 0.99 3.96 1.98 6 3 C4.4375 5 4.4375 5 2 7 C-2.40203429 7.46337203 -4.2794164 7.48038907 -8 5 C-8 4.34 -8 3.68 -8 3 C-5.36 2.67 -2.72 2.34 0 2 C0 1.34 0 0.68 0 0 Z " fill="#00F600" transform="translate(63,131)"/>
<path d="M0 0 C1.05445313 -0.01417969 2.10890625 -0.02835938 3.1953125 -0.04296875 C5.875 0.1875 5.875 0.1875 7.875 2.1875 C5.565 2.1875 3.255 2.1875 0.875 2.1875 C0.875 2.8475 0.875 3.5075 0.875 4.1875 C-0.58323212 4.2145043 -2.04160675 4.23389787 -3.5 4.25 C-4.31210937 4.26160156 -5.12421875 4.27320313 -5.9609375 4.28515625 C-8.125 4.1875 -8.125 4.1875 -10.125 3.1875 C-10.125 2.5275 -10.125 1.8675 -10.125 1.1875 C-6.71740374 0.15863639 -3.5507762 0.02181066 0 0 Z " fill="#B7F8B7" transform="translate(23.125,25.8125)"/>
<path d="M0 0 C1.30517578 0.0918457 1.30517578 0.0918457 2.63671875 0.18554688 C4.75899443 0.33713799 6.87972585 0.51009803 9 0.6875 C9 1.0175 9 1.3475 9 1.6875 C7.13794922 1.88666016 7.13794922 1.88666016 5.23828125 2.08984375 C3.59634139 2.26811151 1.95441501 2.44650346 0.3125 2.625 C-0.91243164 2.75551758 -0.91243164 2.75551758 -2.16210938 2.88867188 C-5.46509575 3.24972707 -8.68494463 3.62046694 -11.9375 4.3125 C-14.57636262 4.7922932 -15.77397176 4.08907333 -18 2.6875 C-11.63493047 -0.17825468 -6.90275401 -0.59908695 0 0 Z " fill="#28F917" transform="translate(58,25.3125)"/>
<path d="M0 0 C2.53430354 2.25351423 3.73319568 4.30743767 5 7.4375 C6.36468573 10.67600422 7.85422006 13.21048608 10 16 C10 16.99 10 17.98 10 19 C7 18 7 18 5.90917969 16.44946289 C5.42046387 15.4709436 5.42046387 15.4709436 4.921875 14.47265625 C4.56609375 13.76302734 4.2103125 13.05339844 3.84375 12.32226562 C3.4828125 11.57654297 3.121875 10.83082031 2.75 10.0625 C2.37359375 9.32064453 1.9971875 8.57878906 1.609375 7.81445312 C0.66970399 5.90920107 -0.1730082 3.95679625 -1 2 C-0.67 1.34 -0.34 0.68 0 0 Z " fill="#01AE01" transform="translate(19,96)"/>
<path d="M0 0 C0.33 0.99 0.66 1.98 1 3 C0.53980469 3.89976563 0.07960938 4.79953125 -0.39453125 5.7265625 C-2.22648296 9.46178277 -2.49244661 12.23986808 -2.6875 16.375 C-2.75324219 17.62023437 -2.81898437 18.86546875 -2.88671875 20.1484375 C-2.92410156 21.08945313 -2.96148437 22.03046875 -3 23 C-3.33 23 -3.66 23 -4 23 C-4 17.72 -4 12.44 -4 7 C-5.65 7 -7.3 7 -9 7 C-8.67 5.68 -8.34 4.36 -8 3 C-7.01 3.99 -6.02 4.98 -5 6 C-4.9175 5.38125 -4.835 4.7625 -4.75 4.125 C-4 2 -4 2 -1.9375 0.75 C-1.298125 0.5025 -0.65875 0.255 0 0 Z " fill="#04AA01" transform="translate(35,62)"/>
<path d="M0 0 C-3.92117345 1.99498298 -7.78397813 3.94331661 -11.875 5.5625 C-15.22792779 6.77411947 -15.22792779 6.77411947 -17 10 C-19.625 10.1875 -19.625 10.1875 -22 10 C-17.02997245 4.20163453 -7.82545352 -2.42858902 0 0 Z " fill="#2A5E0B" transform="translate(57,45)"/>
<path d="M0 0 C1.32 0 2.64 0 4 0 C4 0.99 4 1.98 4 3 C4.66 2.01 5.32 1.02 6 0 C6 1.65 6 3.3 6 5 C4.02 5 2.04 5 0 5 C2.31 7.64 4.62 10.28 7 13 C4 13 4 13 2.17578125 11.5390625 C1.56089844 10.90742188 0.94601563 10.27578125 0.3125 9.625 C-0.31011719 8.99851562 -0.93273438 8.37203125 -1.57421875 7.7265625 C-3 6 -3 6 -3 4 C-2.34 3.67 -1.68 3.34 -1 3 C-0.67 2.01 -0.34 1.02 0 0 Z " fill="#01B101" transform="translate(40,119)"/>
<path d="M0 0 C0.33 0 0.66 0 1 0 C1.02705308 2.41674224 1.04686438 4.8331794 1.0625 7.25 C1.07087891 7.93191406 1.07925781 8.61382812 1.08789062 9.31640625 C1.10428392 12.69342554 1.05628768 15.77291639 0 19 C-0.66 19 -1.32 19 -2 19 C-2.99 21.475 -2.99 21.475 -4 24 C-4.99 24 -5.98 24 -7 24 C-6.505 22.515 -6.505 22.515 -6 21 C-5.34 21 -4.68 21 -4 21 C-3.67 18.69 -3.34 16.38 -3 14 C-2.01 13.67 -1.02 13.34 0 13 C0 8.71 0 4.42 0 0 Z " fill="#069593" transform="translate(88,73)"/>
<path d="M0 0 C11.875 4.75 11.875 4.75 14 9 C9.76570244 7.68938409 5.92592596 6.05643741 2 4 C1.67 7.3 1.34 10.6 1 14 C0.67 14 0.34 14 0 14 C0 9.38 0 4.76 0 0 Z " fill="#21C5C4" transform="translate(68,53)"/>
<path d="M0 0 C0 3 0 3 -1.9375 6.1875 C-4.31014171 10.11116191 -4.68134035 13.45910001 -5 18 C-5.99 18 -6.98 18 -8 18 C-7.9639746 10.21851268 -5.47450401 5.47450401 0 0 Z " fill="#3A3B26" transform="translate(54,77)"/>
<path d="M0 0 C1.1446875 0.0928125 1.1446875 0.0928125 2.3125 0.1875 C-1.38840521 4.1127025 -5.23709656 7.13330156 -9.6875 10.1875 C-10.3475 9.1975 -11.0075 8.2075 -11.6875 7.1875 C-10.759375 6.589375 -9.83125 5.99125 -8.875 5.375 C-5.79423663 3.44687391 -5.79423663 3.44687391 -4.125 1.4375 C-2.6875 0.1875 -2.6875 0.1875 0 0 Z " fill="#AFA712" transform="translate(95.6875,47.8125)"/>
<path d="M0 0 C4.69023454 0.56606279 9.34500026 1.18537505 14 2 C13.01 2.495 13.01 2.495 12 3 C12 3.99 12 4.98 12 6 C9.69 5.67 7.38 5.34 5 5 C5 4.34 5 3.68 5 3 C3.35 2.67 1.7 2.34 0 2 C0 1.34 0 0.68 0 0 Z " fill="#A4F6A4" transform="translate(76,22)"/>
<path d="M0 0 C0.66 0 1.32 0 2 0 C1.54965877 1.62723299 1.08944646 3.25173664 0.625 4.875 C0.36976562 5.77992187 0.11453125 6.68484375 -0.1484375 7.6171875 C-1 10 -1 10 -3 12 C-3.6425235 14.06874034 -3.6425235 14.06874034 -4 16 C-4.66 16 -5.32 16 -6 16 C-6 16.66 -6 17.32 -6 18 C-8.97 18 -11.94 18 -15 18 C-15 17.67 -15 17.34 -15 17 C-13.906875 16.938125 -12.81375 16.87625 -11.6875 16.8125 C-7.92824544 16.41569541 -7.92824544 16.41569541 -6.4375 13.8125 C-4.98287053 10.96648582 -3.61387991 8.1068117 -2.3125 5.1875 C-1.87550781 4.21167969 -1.43851563 3.23585938 -0.98828125 2.23046875 C-0.66214844 1.49441406 -0.33601563 0.75835937 0 0 Z " fill="#00CB00" transform="translate(99,97)"/>
<path d="M0 0 C1.0828125 0.495 1.0828125 0.495 2.1875 1 C5.01697427 2.00603529 7.02895466 2.16977402 10 2 C10 2.99 10 3.98 10 5 C10.99 5 11.98 5 13 5 C13 5.66 13 6.32 13 7 C9.7 6.67 6.4 6.34 3 6 C3 5.01 3 4.02 3 3 C1.35 2.67 -0.3 2.34 -2 2 C-1.34 1.34 -0.68 0.68 0 0 Z " fill="#4A491F" transform="translate(73,37)"/>
<path d="M0 0 C8.57142857 0.71428571 8.57142857 0.71428571 12 4 C11.67 4.99 11.34 5.98 11 7 C9.35 6.67 7.7 6.34 6 6 C6 5.34 6 4.68 6 4 C4.02 3.34 2.04 2.68 0 2 C0 1.34 0 0.68 0 0 Z " fill="#01BC01" transform="translate(71,49)"/>
<path d="M0 0 C0.33 0 0.66 0 1 0 C0.938125 1.051875 0.87625 2.10375 0.8125 3.1875 C1.0077786 7.15816493 1.70325068 8.84196969 4 12 C0.54074837 10.7508258 -2.14693203 9.32472205 -5 7 C-4.67 5.02 -4.34 3.04 -4 1 C-3.67 1.99 -3.34 2.98 -3 4 C-2.01 4 -1.02 4 0 4 C0 2.68 0 1.36 0 0 Z " fill="#01A101" transform="translate(52,128)"/>
<path d="M0 0 C4.44278222 5.25056081 5.2706664 10.23333989 5 17 C4.01 17 3.02 17 2 17 C1.93941406 16.27554688 1.87882812 15.55109375 1.81640625 14.8046875 C1.38516567 9.82883467 0.92952359 4.91319609 0 0 Z " fill="#3C3C22" transform="translate(62,78)"/>
<path d="M0 0 C3.82630838 1.22988484 5.32679872 3.5808576 7.18359375 7.046875 C8.43084936 10.03074011 8.73756706 12.78519651 9 16 C8.01 16 7.02 16 6 16 C5.90203125 15.43152344 5.8040625 14.86304687 5.703125 14.27734375 C4.63676081 8.77085969 3.01715751 4.7268801 0 0 Z " fill="#2F2F22" transform="translate(66,78)"/>
<path d="M0 0 C3.63 0 7.26 0 11 0 C11 0.99 11 1.98 11 3 C7.7 3 4.4 3 1 3 C0.67 4.32 0.34 5.64 0 7 C0 4.69 0 2.38 0 0 Z " fill="#097A03" transform="translate(96,59)"/>
<path d="M0 0 C-1.41478135 0.64995297 -2.83191487 1.29478722 -4.25 1.9375 C-5.03890625 2.29714844 -5.8278125 2.65679688 -6.640625 3.02734375 C-10.27496597 4.52560683 -13.3231519 5.12794747 -17.25 5.0625 C-19.10625 5.0315625 -19.10625 5.0315625 -21 5 C-17.47112083 2.64741389 -13.99496906 1.80623911 -9.9375 0.8125 C-8.83825195 0.52729492 -8.83825195 0.52729492 -7.71679688 0.23632812 C-2.24879292 -1.12439646 -2.24879292 -1.12439646 0 0 Z " fill="#82FD82" transform="translate(53,24)"/>
<path d="M0 0 C2.64 0 5.28 0 8 0 C7.43628586 3.26954202 6.50037734 4.82575883 4 7 C0 2.25 0 2.25 0 0 Z " fill="#0D0E05" transform="translate(57,99)"/>
<path d="M0 0 C0.99 0.33 1.98 0.66 3 1 C1.1875 3 1.1875 3 -1 5 C-1.99 5 -2.98 5 -4 5 C-4.268125 5.61875 -4.53625 6.2375 -4.8125 6.875 C-6 9 -6 9 -9 11 C-9 7 -9 7 -7.13671875 5.04296875 C-6.32847656 4.43066406 -5.52023438 3.81835938 -4.6875 3.1875 C-3.88699219 2.56230469 -3.08648437 1.93710937 -2.26171875 1.29296875 C-1.14216797 0.65294922 -1.14216797 0.65294922 0 0 Z " fill="#E2D813" transform="translate(97,49)"/>
<path d="M0 0 C5.94 0 11.88 0 18 0 C18.33 0.66 18.66 1.32 19 2 C15.52674819 3.1577506 12.63932552 3.06866652 9 3 C9 2.34 9 1.68 9 1 C6.03 1 3.06 1 0 1 C0 0.67 0 0.34 0 0 Z " fill="#FBF412" transform="translate(67,100)"/>
<path d="M0 0 C0.33 0 0.66 0 1 0 C1.07347656 1.12148437 1.07347656 1.12148437 1.1484375 2.265625 C1.22320312 3.25046875 1.29796875 4.2353125 1.375 5.25 C1.44460937 6.22453125 1.51421875 7.1990625 1.5859375 8.203125 C1.98465249 10.89633189 2.63507063 12.66963279 4 15 C3.4225 14.525625 2.845 14.05125 2.25 13.5625 C0.07417916 12.0515133 -1.42602448 11.45963849 -4 11 C-4.33 9.35 -4.66 7.7 -5 6 C-2.525 6.99 -2.525 6.99 0 8 C0 5.36 0 2.72 0 0 Z " fill="#8F9E29" transform="translate(68,67)"/>
<path d="M0 0 C2.64 0 5.28 0 8 0 C8 0.66 8 1.32 8 2 C10.31 2.33 12.62 2.66 15 3 C15 3.33 15 3.66 15 4 C9.72 3.67 4.44 3.34 -1 3 C-0.67 2.01 -0.34 1.02 0 0 Z " fill="#01FD02" transform="translate(57,23)"/>
<path d="M0 0 C-1 3 -1 3 -2.84765625 3.94921875 C-3.57855469 4.19285156 -4.30945312 4.43648437 -5.0625 4.6875 C-6.16271484 5.06455078 -6.16271484 5.06455078 -7.28515625 5.44921875 C-7.85105469 5.63097656 -8.41695312 5.81273437 -9 6 C-9.99 5.01 -10.98 4.02 -12 3 C-10.75336669 2.49166409 -9.50250613 1.99368855 -8.25 1.5 C-7.55390625 1.2215625 -6.8578125 0.943125 -6.140625 0.65625 C-4 0 -4 0 0 0 Z " fill="#ABEFAB" transform="translate(54,19)"/>
<path d="M0 0 C1.32 0 2.64 0 4 0 C4.9375 2.625 4.9375 2.625 5 6 C2.9456142 8.38782014 0.56957396 10.19296794 -2 12 C-2.66 11.67 -3.32 11.34 -4 11 C-2.35 9.02 -0.7 7.04 1 5 C0.67 5 0.34 5 0 5 C0 3.35 0 1.7 0 0 Z " fill="#019102" transform="translate(71,128)"/>
<path d="M0 0 C1.98 0.99 1.98 0.99 4 2 C4 2.66 4 3.32 4 4 C4.66 4 5.32 4 6 4 C6.66 5.98 7.32 7.96 8 10 C9.65 10.33 11.3 10.66 13 11 C13 11.33 13 11.66 13 12 C10.69 12 8.38 12 6 12 C5.18432826 10.56429734 4.37257907 9.12636566 3.5625 7.6875 C3.11003906 6.88699219 2.65757813 6.08648437 2.19140625 5.26171875 C1 3 1 3 0 0 Z " fill="#00CB00" transform="translate(23,103)"/>
<path d="M0 0 C0.33 0 0.66 0 1 0 C1.33 5.28 1.66 10.56 2 16 C1.01 16 0.02 16 -1 16 C-1.09688221 10.55306686 -1.12862175 5.36095333 0 0 Z " fill="#454523" transform="translate(60,79)"/>
<path d="M0 0 C5 5 5 5 6.5625 6.6875 C8.23456517 8.2141682 9.94228223 9.07757479 12 10 C11.01 10.66 10.02 11.32 9 12 C7.5409857 10.70910257 6.08281149 9.41725561 4.625 8.125 C3.81289063 7.40570313 3.00078125 6.68640625 2.1640625 5.9453125 C0.74204921 4.66704062 -0.64794586 3.35205414 -2 2 C-1.34 1.34 -0.68 0.68 0 0 Z " fill="#A5A210" transform="translate(27,46)"/>
<path d="M0 0 C1.32 0 2.64 0 4 0 C4 0.66 4 1.32 4 2 C10.27 2 16.54 2 23 2 C23 2.33 23 2.66 23 3 C15.73691811 4.32056034 6.5620734 5.96230208 0 2 C0 1.34 0 0.68 0 0 Z " fill="#8EFD8E" transform="translate(9,27)"/>
<path d="M0 0 C2.31 0 4.62 0 7 0 C7.33 1.65 7.66 3.3 8 5 C5.36 5 2.72 5 0 5 C0 3.35 0 1.7 0 0 Z " fill="#027B03" transform="translate(60,119)"/>
<path d="M0 0 C2.74554724 2.37115444 3.95117186 4.53079925 5 8 C5.125 11.3125 5.125 11.3125 5 14 C4.01 14 3.02 14 2 14 C1.93941406 13.40832031 1.87882812 12.81664063 1.81640625 12.20703125 C1.37987629 8.09021792 0.91328654 4.04455467 0 0 Z " fill="#343421" transform="translate(66,81)"/>
<path d="M0 0 C2.83338222 1.37840216 5.55688806 2.86418386 8.25 4.5 C8.95640625 4.9228125 9.6628125 5.345625 10.390625 5.78125 C10.92171875 6.1834375 11.4528125 6.585625 12 7 C12 7.66 12 8.32 12 9 C7.25 7.125 7.25 7.125 5 6 C4.67 6.66 4.34 7.32 4 8 C0 2.25 0 2.25 0 0 Z " fill="#049B02" transform="translate(84,59)"/>
<path d="M0 0 C5.98515697 0.30693113 10.49893296 3.22910606 15 7 C15 7.66 15 8.32 15 9 C14.01 9.33 13.02 9.66 12 10 C11.67 9.01 11.34 8.02 11 7 C7.50833145 4.38124858 4.11336093 2.45177445 0 1 C0 0.67 0 0.34 0 0 Z " fill="#1F6109" transform="translate(71,46)"/>
<path d="M0 0 C0.99 0 1.98 0 3 0 C2 2 1 4 0 6 C-2.3140622 6.73075648 -4.64828869 7.40138258 -7 8 C-6.8125 6.125 -6.8125 6.125 -6 4 C-3.5 2.875 -3.5 2.875 -1 2 C-0.67 1.34 -0.34 0.68 0 0 Z " fill="#4B491F" transform="translate(43,38)"/>
<path d="M0 0 C2.66666667 0 5.33333333 0 8 0 C7.01 0.495 7.01 0.495 6 1 C6.66 1.33 7.32 1.66 8 2 C8 2.99 8 3.98 8 5 C5.36 5 2.72 5 0 5 C0 3.35 0 1.7 0 0 Z " fill="#037203" transform="translate(69,119)"/>
<path d="M0 0 C1 3 1 3 -0.109375 5.84765625 C-0.65078125 6.90855469 -1.1921875 7.96945313 -1.75 9.0625 C-2.28109375 10.12597656 -2.8121875 11.18945312 -3.359375 12.28515625 C-5 15 -5 15 -8 17 C-7.30150228 13.0254496 -5.37107231 9.73425902 -3.4375 6.25 C-3.10814453 5.64800781 -2.77878906 5.04601562 -2.43945312 4.42578125 C-1.6303535 2.94829497 -0.81572338 1.47383964 0 0 Z " fill="#00ED00" transform="translate(98,97)"/>
<path d="M0 0 C0.33 0.66 0.66 1.32 1 2 C0.328125 3.875 0.328125 3.875 -0.75 6 C-1.26820312 7.051875 -1.26820312 7.051875 -1.796875 8.125 C-3 10 -3 10 -6 12 C-5.54300722 6.97307937 -3.00758252 3.85103739 0 0 Z " fill="#28EA24" transform="translate(91,89)"/>
<path d="M0 0 C2.31 0 4.62 0 7 0 C7 1.66666667 7 3.33333333 7 5 C4.69 5 2.38 5 0 5 C0 3.35 0 1.7 0 0 Z " fill="#037D02" transform="translate(54,128)"/>
<path d="M0 0 C2.97 0 5.94 0 9 0 C8.67 1.32 8.34 2.64 8 4 C5.36 3.67 2.72 3.34 0 3 C0 2.01 0 1.02 0 0 Z " fill="#067603" transform="translate(17,59)"/>
<path d="M0 0 C0.66 0.33 1.32 0.66 2 1 C0 4 0 4 -2.3125 5.3125 C-5.70580837 7.443182 -7.54690571 9.84602162 -10 13 C-10.33 12.01 -10.66 11.02 -11 10 C-3.70159453 2.51708428 -3.70159453 2.51708428 0 0 Z " fill="#5C938F" transform="translate(48,53)"/>
<path d="M0 0 C2.99220268 1.36370299 5.29026529 2.94908083 7.75 5.125 C8.67039062 5.93324219 8.67039062 5.93324219 9.609375 6.7578125 C10.06828125 7.16773438 10.5271875 7.57765625 11 8 C10.67 8.66 10.34 9.32 10 10 C6.01978119 7.83930979 3.02749676 5.37349639 0 2 C0 1.34 0 0.68 0 0 Z " fill="#D5CB12" transform="translate(25,49)"/>
<path d="M0 0 C0.66 0 1.32 0 2 0 C2.144375 0.763125 2.28875 1.52625 2.4375 2.3125 C2.9632594 5.08172908 2.9632594 5.08172908 4 8 C1.69 8 -0.62 8 -3 8 C-2.67 7.01 -2.34 6.02 -2 5 C-1.34 5 -0.68 5 0 5 C0 3.35 0 1.7 0 0 Z " fill="#736E1B" transform="translate(64,30)"/>
<path d="M0 0 C2.31 0 4.62 0 7 0 C6.01 0.495 6.01 0.495 5 1 C5 1.99 5 2.98 5 4 C5.66 4.33 6.32 4.66 7 5 C4.69 5 2.38 5 0 5 C0 3.35 0 1.7 0 0 Z " fill="#037003" transform="translate(62,128)"/>
<path d="M0 0 C0.99 0.33 1.98 0.66 3 1 C3 2.32 3 3.64 3 5 C0.69 5 -1.62 5 -4 5 C-3 2 -3 2 0 0 Z " fill="#AEEFAD" transform="translate(61,13)"/>
<path d="M0 0 C2.375 0.3125 2.375 0.3125 5 1 C5.66 1.99 6.32 2.98 7 4 C5.88625 3.979375 4.7725 3.95875 3.625 3.9375 C0.16784079 3.73619282 0.16784079 3.73619282 -2 5 C-1.34 3.35 -0.68 1.7 0 0 Z " fill="#D3D63D" transform="translate(58,72)"/>
<path d="M0 0 C1.32 0 2.64 0 4 0 C4 1.98 4 3.96 4 6 C2.68 6 1.36 6 0 6 C0 4.02 0 2.04 0 0 Z " fill="#ECE318" transform="translate(64,62)"/>
<path d="M0 0 C2.97 0.495 2.97 0.495 6 1 C5.01 1.495 5.01 1.495 4 2 C4 2.66 4 3.32 4 4 C5.65 4.33 7.3 4.66 9 5 C5.98968256 5.93423645 5.13349732 6.04449911 2 5 C0.8125 2.4375 0.8125 2.4375 0 0 Z " fill="#93F394" transform="translate(72,20)"/>
<path d="M0 0 C3.625 0.3125 3.625 0.3125 7.625 3.3125 C3.335 2.9825 -0.955 2.6525 -5.375 2.3125 C-3.375 0.3125 -3.375 0.3125 0 0 Z " fill="#6BFD6B" transform="translate(62.375,18.6875)"/>
<path d="M0 0 C0.99 0.66 1.98 1.32 3 2 C1.7934375 2.37125 1.7934375 2.37125 0.5625 2.75 C-2.171081 3.72238859 -2.171081 3.72238859 -2.8125 6.125 C-2.9053125 7.053125 -2.9053125 7.053125 -3 8 C-3.99 7.67 -4.98 7.34 -6 7 C-4.02 4.69 -2.04 2.38 0 0 Z " fill="#167305" transform="translate(33,60)"/>
<path d="M0 0 C0.99 0 1.98 0 3 0 C3 1.32 3 2.64 3 4 C2.01 4 1.02 4 0 4 C0 6.31 0 8.62 0 11 C-0.33 11 -0.66 11 -1 11 C-1.02688151 9.35425434 -1.04634123 7.70838587 -1.0625 6.0625 C-1.07410156 5.14597656 -1.08570313 4.22945312 -1.09765625 3.28515625 C-1 1 -1 1 0 0 Z " fill="#B8B52C" transform="translate(64,50)"/>
<path d="M0 0 C-1.28913487 0.67154933 -2.58140204 1.33708859 -3.875 2 C-4.59429687 2.37125 -5.31359375 2.7425 -6.0546875 3.125 C-8 4 -8 4 -10 4 C-9 1 -9 1 -6.6875 -0.25 C-3.83402593 -1.04631835 -2.75197675 -0.8214856 0 0 Z " fill="#1F6907" transform="translate(57,45)"/>
<path d="M0 0 C1.32 0 2.64 0 4 0 C4 0.99 4 1.98 4 3 C4.66 2.01 5.32 1.02 6 0 C6 1.65 6 3.3 6 5 C3.03 4.505 3.03 4.505 0 4 C0 2.68 0 1.36 0 0 Z " fill="#027C03" transform="translate(40,119)"/>
<path d="M0 0 C1.32 0 2.64 0 4 0 C4 0.99 4 1.98 4 3 C4.66 3 5.32 3 6 3 C6.33 3.99 6.66 4.98 7 6 C6.01 6 5.02 6 4 6 C0 1.54285714 0 1.54285714 0 0 Z " fill="#01A301" transform="translate(29,117)"/>
<path d="M0 0 C5 6.36363636 5 6.36363636 5 11 C5.66 11.33 6.32 11.66 7 12 C6.01 12 5.02 12 4 12 C3.525625 11.030625 3.05125 10.06125 2.5625 9.0625 C1.29806053 6.19522563 1.29806053 6.19522563 0 5 C-0.04063832 3.33382885 -0.042721 1.66611905 0 0 Z " fill="#07D1D0" transform="translate(36,86)"/>
<path d="M0 0 C0.99 0.33 1.98 0.66 3 1 C2.38125 1.5775 1.7625 2.155 1.125 2.75 C-1.05293915 4.83069418 -1.05293915 4.83069418 -2.0625 7.1875 C-3 9 -3 9 -6 10 C-2.28571429 2.28571429 -2.28571429 2.28571429 0 0 Z " fill="#1DD7D5" transform="translate(45,57)"/>
<path d="M0 0 C0.99 0 1.98 0 3 0 C3 2.31 3 4.62 3 7 C2.01 7 1.02 7 0 7 C0 4.69 0 2.38 0 0 Z " fill="#F4EB1A" transform="translate(64,54)"/>
<path d="M0 0 C5.61 0.33 11.22 0.66 17 1 C17 1.33 17 1.66 17 2 C11.555 2.495 11.555 2.495 6 3 C6 2.34 6 1.68 6 1 C4.02 1 2.04 1 0 1 C0 0.67 0 0.34 0 0 Z " fill="#739977" transform="translate(94,25)"/>
<path d="M0 0 C0.66 0.33 1.32 0.66 2 1 C0.1875 3.5 0.1875 3.5 -2 6 C-2.99 6 -3.98 6 -5 6 C-3.63016497 2.83884224 -3.0109362 2.0072908 0 0 Z " fill="#019401" transform="translate(92,117)"/>
<path d="M0 0 C4.62 0 9.24 0 14 0 C14 0.33 14 0.66 14 1 C12.58366664 1.16947579 11.16691467 1.33545507 9.75 1.5 C8.56664063 1.63921875 8.56664063 1.63921875 7.359375 1.78125 C5 2 5 2 1 2 C0.67 1.34 0.34 0.68 0 0 Z " fill="#02DC02" transform="translate(58,112)"/>
<path d="M0 0 C-2.46278801 2.46278801 -4.70676982 2.99771255 -8 4 C-8 3.34 -8 2.68 -8 2 C-9.32 1.67 -10.64 1.34 -12 1 C-7.93631321 0.22596442 -4.13574827 -0.0984702 0 0 Z " fill="#2F3D21" transform="translate(79,104)"/>
<path d="M0 0 C1.65 0 3.3 0 5 0 C5 1.65 5 3.3 5 5 C2.525 4.01 2.525 4.01 0 3 C0 2.01 0 1.02 0 0 Z " fill="#F2E811" transform="translate(63,70)"/>
<path d="M0 0 C0.66 0 1.32 0 2 0 C2.33 2.31 2.66 4.62 3 7 C2.01 7.33 1.02 7.66 0 8 C-1.125 2.25 -1.125 2.25 0 0 Z " fill="#9D971B" transform="translate(56,30)"/>
<path d="M0 0 C0.66 0.33 1.32 0.66 2 1 C0.1875 4 0.1875 4 -2 7 C-2.99 7 -3.98 7 -5 7 C-5 6.34 -5 5.68 -5 5 C-4.34 5 -3.68 5 -3 5 C-2.5359375 4.0409375 -2.5359375 4.0409375 -2.0625 3.0625 C-1 1 -1 1 0 0 Z " fill="#019801" transform="translate(98,108)"/>
<path d="M0 0 C2.0625 2.3125 2.0625 2.3125 4 5 C3.67 5.99 3.34 6.98 3 8 C0.52557871 5.84832931 -0.56238367 4.28212246 -1 1 C-0.67 0.67 -0.34 0.34 0 0 Z " fill="#1AE113" transform="translate(34,93)"/>
<path d="M0 0 C1.98 0 3.96 0 6 0 C6 0.33 6 0.66 6 1 C4.02 1 2.04 1 0 1 C0 0.67 0 0.34 0 0 Z " fill="#0B0B0B" transform="translate(4,18)"/>
<path d="M0 0 C1.65 0 3.3 0 5 0 C5 0.33 5 0.66 5 1 C3.35 1 1.7 1 0 1 C0 0.67 0 0.34 0 0 Z " fill="#0B0B0B" transform="translate(113,18)"/>
<path d="M0 0 C1 4 1 4 1 4 Z " fill="#0B0B0B" transform="translate(0,55)"/>
<path d="M0 0 C1 4 1 4 1 4 Z " fill="#0B0B0B" transform="translate(122,52)"/>
<path d="M0 0 C4 1 4 1 4 1 Z " fill="#0B0B0B" transform="translate(105,17)"/>
<path d="M0 0 C4 1 4 1 4 1 Z " fill="#0B0B0B" transform="translate(14,17)"/>
<path d="" fill="#0B0B0B" transform="translate(0,0)"/>
<path d="" fill="#0B0B0B" transform="translate(0,0)"/>
<path d="" fill="#0B0B0B" transform="translate(0,0)"/>
<path d="" fill="#0B0B0B" transform="translate(0,0)"/>
<path d="" fill="#0B0B0B" transform="translate(0,0)"/>
<path d="" fill="#0B0B0B" transform="translate(0,0)"/>
<path d="" fill="#0B0B0B" transform="translate(0,0)"/>
<path d="M0 0 C3 1 3 1 3 1 Z " fill="#0B0B0B" transform="translate(100,16)"/>
<path d="M0 0 C3 1 3 1 3 1 Z " fill="#0B0B0B" transform="translate(21,16)"/>
<path d="M0 0 C3 1 3 1 3 1 Z " fill="#0B0B0B" transform="translate(95,15)"/>
<path d="M0 0 C3 1 3 1 3 1 Z " fill="#0B0B0B" transform="translate(26,15)"/>
<path d="M0 0 C3 1 3 1 3 1 Z " fill="#0B0B0B" transform="translate(30,14)"/>
<path d="" fill="#0B0B0B" transform="translate(0,0)"/>
<path d="" fill="#0B0B0B" transform="translate(0,0)"/>
<path d="" fill="#0B0B0B" transform="translate(0,0)"/>
<path d="" fill="#0B0B0B" transform="translate(0,0)"/>
<path d="" fill="#0B0B0B" transform="translate(0,0)"/>
<path d="" fill="#0B0B0B" transform="translate(0,0)"/>
<path d="" fill="#0B0B0B" transform="translate(0,0)"/>
<path d="" fill="#0B0B0B" transform="translate(0,0)"/>
<path d="" fill="#0B0B0B" transform="translate(0,0)"/>
<path d="" fill="#0B0B0B" transform="translate(0,0)"/>
<path d="" fill="#0B0B0B" transform="translate(0,0)"/>
<path d="" fill="#0B0B0B" transform="translate(0,0)"/>
<path d="" fill="#0B0B0B" transform="translate(0,0)"/>
<path d="M0 0 C2 1 2 1 2 1 Z " fill="#0B0B0B" transform="translate(92,14)"/>
<path d="M0 0 C2 1 2 1 2 1 Z " fill="#0B0B0B" transform="translate(88,13)"/>
<path d="M0 0 C2 1 2 1 2 1 Z " fill="#0B0B0B" transform="translate(34,13)"/>
<path d="M0 0 C2 1 2 1 2 1 Z " fill="#0B0B0B" transform="translate(85,12)"/>
<path d="M0 0 C2 1 2 1 2 1 Z " fill="#0B0B0B" transform="translate(37,12)"/>
<path d="M0 0 C2 1 2 1 2 1 Z " fill="#0B0B0B" transform="translate(82,11)"/>
<path d="M0 0 C2 1 2 1 2 1 Z " fill="#0B0B0B" transform="translate(40,11)"/>
<path d="M0 0 C2 1 2 1 2 1 Z " fill="#0B0B0B" transform="translate(79,10)"/>
<path d="M0 0 C2 1 2 1 2 1 Z " fill="#0B0B0B" transform="translate(77,9)"/>
<path d="" fill="#0B0B0B" transform="translate(0,0)"/>
<path d="" fill="#0B0B0B" transform="translate(0,0)"/>
<path d="" fill="#0B0B0B" transform="translate(0,0)"/>
<path d="" fill="#0B0B0B" transform="translate(0,0)"/>
<path d="" fill="#0B0B0B" transform="translate(0,0)"/>
<path d="" fill="#0B0B0B" transform="translate(0,0)"/>
<path d="" fill="#0B0B0B" transform="translate(0,0)"/>
<path d="" fill="#0B0B0B" transform="translate(0,0)"/>
<path d="" fill="#0B0B0B" transform="translate(0,0)"/>
<path d="" fill="#0B0B0B" transform="translate(0,0)"/>
<path d="" fill="#0B0B0B" transform="translate(0,0)"/>
<path d="" fill="#0B0B0B" transform="translate(0,0)"/>
<path d="" fill="#0B0B0B" transform="translate(0,0)"/>
<path d="" fill="#0B0B0B" transform="translate(0,0)"/>
<path d="" fill="#0B0B0B" transform="translate(0,0)"/>
<path d="" fill="#0B0B0B" transform="translate(0,0)"/>
<path d="" fill="#0B0B0B" transform="translate(0,0)"/>
<path d="" fill="#0B0B0B" transform="translate(0,0)"/>
<path d="" fill="#0B0B0B" transform="translate(0,0)"/>
<path d="" fill="#0B0B0B" transform="translate(0,0)"/>
<path d="" fill="#0B0B0B" transform="translate(0,0)"/>
<path d="" fill="#0B0B0B" transform="translate(0,0)"/>
<path d="" fill="#0B0B0B" transform="translate(0,0)"/>
<path d="" fill="#0B0B0B" transform="translate(0,0)"/>
<path d="" fill="#0B0B0B" transform="translate(0,0)"/>
<path d="" fill="#0B0B0B" transform="translate(0,0)"/>
<path d="" fill="#0B0B0B" transform="translate(0,0)"/>
<path d="" fill="#0B0B0B" transform="translate(0,0)"/>
<path d="" fill="#0B0B0B" transform="translate(0,0)"/>
<path d="" fill="#0B0B0B" transform="translate(0,0)"/>
<path d="" fill="#0B0B0B" transform="translate(0,0)"/>
<path d="" fill="#0B0B0B" transform="translate(0,0)"/>
<path d="" fill="#0B0B0B" transform="translate(0,0)"/>
<path d="" fill="#0B0B0B" transform="translate(0,0)"/>
<path d="" fill="#0B0B0B" transform="translate(0,0)"/>
<path d="" fill="#0B0B0B" transform="translate(0,0)"/>
<path d="" fill="#0B0B0B" transform="translate(0,0)"/>
<path d="" fill="#0B0B0B" transform="translate(0,0)"/>
<path d="" fill="#0B0B0B" transform="translate(0,0)"/>
<path d="" fill="#0B0B0B" transform="translate(0,0)"/>
<path d="" fill="#0B0B0B" transform="translate(0,0)"/>
<path d="" fill="#0B0B0B" transform="translate(0,0)"/>
<path d="" fill="#0B0B0B" transform="translate(0,0)"/>
<path d="" fill="#0B0B0B" transform="translate(0,0)"/>
<path d="" fill="#0B0B0B" transform="translate(0,0)"/>
<path d="" fill="#0B0B0B" transform="translate(0,0)"/>
<path d="" fill="#0B0B0B" transform="translate(0,0)"/>
<path d="" fill="#0B0B0B" transform="translate(0,0)"/>
<path d="" fill="#0B0B0B" transform="translate(0,0)"/>
<path d="" fill="#0B0B0B" transform="translate(0,0)"/>
<path d="" fill="#0B0B0B" transform="translate(0,0)"/>
<path d="" fill="#0B0B0B" transform="translate(0,0)"/>
<path d="" fill="#0B0B0B" transform="translate(0,0)"/>
<path d="" fill="#0B0B0B" transform="translate(0,0)"/>
<path d="" fill="#0B0B0B" transform="translate(0,0)"/>
<path d="" fill="#0B0B0B" transform="translate(0,0)"/>
<path d="" fill="#0B0B0B" transform="translate(0,0)"/>
<path d="" fill="#0B0B0B" transform="translate(0,0)"/>
<path d="" fill="#0B0B0B" transform="translate(0,0)"/>
<path d="" fill="#0B0B0B" transform="translate(0,0)"/>
<path d="" fill="#0B0B0B" transform="translate(0,0)"/>
<path d="" fill="#0B0B0B" transform="translate(0,0)"/>
<path d="" fill="#0B0B0B" transform="translate(0,0)"/>
<path d="" fill="#0B0B0B" transform="translate(0,0)"/>
<path d="" fill="#0B0B0B" transform="translate(0,0)"/>
<path d="" fill="#0B0B0B" transform="translate(0,0)"/>
<path d="" fill="#0B0B0B" transform="translate(0,0)"/>
<path d="" fill="#0B0B0B" transform="translate(0,0)"/>
<path d="" fill="#0B0B0B" transform="translate(0,0)"/>
<path d="" fill="#0B0B0B" transform="translate(0,0)"/>
<path d="" fill="#0B0B0B" transform="translate(0,0)"/>
<path d="" fill="#0B0B0B" transform="translate(0,0)"/>
<path d="" fill="#0B0B0B" transform="translate(0,0)"/>
<path d="" fill="#0B0B0B" transform="translate(0,0)"/>
<path d="" fill="#0B0B0B" transform="translate(0,0)"/>
<path d="" fill="#0B0B0B" transform="translate(0,0)"/>
<path d="" fill="#0B0B0B" transform="translate(0,0)"/>
<path d="" fill="#0B0B0B" transform="translate(0,0)"/>
<path d="" fill="#0B0B0B" transform="translate(0,0)"/>
<path d="" fill="#0B0B0B" transform="translate(0,0)"/>
<path d="" fill="#0B0B0B" transform="translate(0,0)"/>
<path d="" fill="#0B0B0B" transform="translate(0,0)"/>
<path d="" fill="#0B0B0B" transform="translate(0,0)"/>
<path d="" fill="#0B0B0B" transform="translate(0,0)"/>
<path d="" fill="#0B0B0B" transform="translate(0,0)"/>
<path d="" fill="#0B0B0B" transform="translate(0,0)"/>
<path d="" fill="#0B0B0B" transform="translate(0,0)"/>
<path d="" fill="#0B0B0B" transform="translate(0,0)"/>
<path d="" fill="#0B0B0B" transform="translate(0,0)"/>
<path d="" fill="#0B0B0B" transform="translate(0,0)"/>
<path d="" fill="#0B0B0B" transform="translate(0,0)"/>
<path d="" fill="#0B0B0B" transform="translate(0,0)"/>
<path d="" fill="#0B0B0B" transform="translate(0,0)"/>
<path d="" fill="#0B0B0B" transform="translate(0,0)"/>
<path d="" fill="#0B0B0B" transform="translate(0,0)"/>
<path d="" fill="#0B0B0B" transform="translate(0,0)"/>
</svg>
